<svg xmlns="http://www.w3.org/2000/svg" xmlns:xlink="http://www.w3.org/1999/xlink" width="626.4" height="318" contentScriptType="application/ecmascript" contentStyleType="text/css" style="width:626px;height:318px" preserveAspectRatio="none" version="1.1" viewBox="0 0 626 318" zoomAndPan="magnify"><defs><filter id="fr586u9aoixsx" width="300%" height="300%" x="-1" y="-1"><feGaussianBlur result="blurOut" stdDeviation="2.4"/><feColorMatrix in="blurOut" result="blurOut2" type="matrix" values="0 0 0 0 0 0 0 0 0 0 0 0 0 0 0 0 0 0 .4 0"/><feOffset dx="4.8" dy="4.8" in="blurOut2" result="blurOut3"/><feBlend in="SourceGraphic" in2="blurOut3" mode="normal"/></filter></defs><g><rect style="stroke:#a80036;stroke-width:1.2" width="12" height="81.919" x="467.4" y="83.316" fill="#FFF" filter="url(#fr586u9aoixsx)"/><line style="stroke:#a80036;stroke-width:1.2;stroke-dasharray:5,5" x1="43.2" x2="43.2" y1="45.956" y2="270.113"/><line style="stroke:#a80036;stroke-width:1.2;stroke-dasharray:5,5" x1="472.8" x2="472.8" y1="45.956" y2="270.113"/><rect style="stroke:#a80036;stroke-width:1.7999999999999998" width="63.6" height="36.356" x="9.6" y="3.6" fill="#FEFECE" filter="url(#fr586u9aoixsx)"/><text x="18" y="27.594" fill="#000" font-family="sans-serif" font-size="16.8" lengthAdjust="spacingAndGlyphs" textLength="46.8">Client</text><rect style="stroke:#a80036;stroke-width:1.7999999999999998" width="63.6" height="36.356" x="9.6" y="268.913" fill="#FEFECE" filter="url(#fr586u9aoixsx)"/><text x="18" y="292.907" fill="#000" font-family="sans-serif" font-size="16.8" lengthAdjust="spacingAndGlyphs" textLength="46.8">Client</text><rect style="stroke:#a80036;stroke-width:1.7999999999999998" width="238.8" height="36.356" x="351.6" y="3.6" fill="#FEFECE" filter="url(#fr586u9aoixsx)"/><text x="360" y="27.594" fill="#000" font-family="sans-serif" font-size="16.8" lengthAdjust="spacingAndGlyphs" textLength="222">Device Connection Service</text><rect style="stroke:#a80036;stroke-width:1.7999999999999998" width="238.8" height="36.356" x="351.6" y="268.913" fill="#FEFECE" filter="url(#fr586u9aoixsx)"/><text x="360" y="292.907" fill="#000" font-family="sans-serif" font-size="16.8" lengthAdjust="spacingAndGlyphs" textLength="222">Device Connection Service</text><rect style="stroke:#a80036;stroke-width:1.2" width="12" height="81.919" x="467.4" y="83.316" fill="#FFF" filter="url(#fr586u9aoixsx)"/><polygon fill="#A80036" points="453 78.516 465 83.316 453 88.116 457.8 83.316" style="stroke:#a80036;stroke-width:1.2"/><line style="stroke:#a80036;stroke-width:1.2" x1="43.8" x2="460.2" y1="83.316" y2="83.316"/><text x="52.2" y="77.237" fill="#000" font-family="sans-serif" font-size="15.6" lengthAdjust="spacingAndGlyphs" textLength="400.8">transfer(subject: &quot;get-last-gw&quot;, device_id: &quot;device-1&quot;)</text><path fill="#FBFB77" d="M328.8,98.9156 L328.8,128.9156 L612,128.9156 L612,110.9156 L600,98.9156 L328.8,98.9156" filter="url(#fr586u9aoixsx)" style="stroke:#a80036;stroke-width:1.2"/><path fill="#FBFB77" d="M600,98.9156 L600,110.9156 L612,110.9156 L600,98.9156" style="stroke:#a80036;stroke-width:1.2"/><text x="336" y="119.396" fill="#000" font-family="sans-serif" font-size="15.6" lengthAdjust="spacingAndGlyphs" textLength="258">get last known gateway for device</text><polygon fill="#A80036" points="57 160.434 45 165.234 57 170.034 52.2 165.234" style="stroke:#a80036;stroke-width:1.2"/><line style="stroke:#a80036;stroke-width:1.2" x1="49.8" x2="472.2" y1="165.234" y2="165.234"/><text x="64.2" y="159.155" fill="#000" font-family="sans-serif" font-size="15.6" lengthAdjust="spacingAndGlyphs" textLength="330">transfer(status: &quot;200&quot;, body: JSON payload)</text><path fill="#FBFB77" d="M49.2,180.8344 L49.2,246.8344 L260.4,246.8344 L260.4,192.8344 L248.4,180.8344 L49.2,180.8344" filter="url(#fr586u9aoixsx)" style="stroke:#a80036;stroke-width:1.2"/><path fill="#FBFB77" d="M248.4,180.8344 L248.4,192.8344 L260.4,192.8344 L248.4,180.8344" style="stroke:#a80036;stroke-width:1.2"/><text x="56.4" y="201.315" fill="#000" font-family="sans-serif" font-size="15.6" lengthAdjust="spacingAndGlyphs" textLength="172.8">JSON payload contains</text><text x="56.4" y="219.474" fill="#000" font-family="sans-serif" font-size="15.6" lengthAdjust="spacingAndGlyphs" textLength="93.6">- gateway-id</text><text x="56.4" y="237.633" fill="#000" font-family="sans-serif" font-size="15.6" lengthAdjust="spacingAndGlyphs" textLength="186">- last-updated (optional)</text></g></svg>