<svg xmlns="http://www.w3.org/2000/svg" xmlns:xlink="http://www.w3.org/1999/xlink" width="726" height="354" contentScriptType="application/ecmascript" contentStyleType="text/css" style="width:726px;height:354px" preserveAspectRatio="none" version="1.1" viewBox="0 0 726 354" zoomAndPan="magnify"><defs><filter id="fo2kdhht50914" width="300%" height="300%" x="-1" y="-1"><feGaussianBlur result="blurOut" stdDeviation="2.4"/><feColorMatrix in="blurOut" result="blurOut2" type="matrix" values="0 0 0 0 0 0 0 0 0 0 0 0 0 0 0 0 0 0 .4 0"/><feOffset dx="4.8" dy="4.8" in="blurOut2" result="blurOut3"/><feBlend in="SourceGraphic" in2="blurOut3" mode="normal"/></filter></defs><g><rect style="stroke:#a80036;stroke-width:1.2" width="12" height="81.919" x="495" y="101.475" fill="#FFF" filter="url(#fo2kdhht50914)"/><line style="stroke:#a80036;stroke-width:1.2;stroke-dasharray:5,5" x1="43.2" x2="43.2" y1="45.956" y2="306.431"/><line style="stroke:#a80036;stroke-width:1.2;stroke-dasharray:5,5" x1="500.4" x2="500.4" y1="45.956" y2="306.431"/><rect style="stroke:#a80036;stroke-width:1.7999999999999998" width="63.6" height="36.356" x="9.6" y="3.6" fill="#FEFECE" filter="url(#fo2kdhht50914)"/><text x="18" y="27.594" fill="#000" font-family="sans-serif" font-size="16.8" lengthAdjust="spacingAndGlyphs" textLength="46.8">Client</text><rect style="stroke:#a80036;stroke-width:1.7999999999999998" width="63.6" height="36.356" x="9.6" y="305.231" fill="#FEFECE" filter="url(#fo2kdhht50914)"/><text x="18" y="329.225" fill="#000" font-family="sans-serif" font-size="16.8" lengthAdjust="spacingAndGlyphs" textLength="46.8">Client</text><rect style="stroke:#a80036;stroke-width:1.7999999999999998" width="238.8" height="36.356" x="379.2" y="3.6" fill="#FEFECE" filter="url(#fo2kdhht50914)"/><text x="387.6" y="27.594" fill="#000" font-family="sans-serif" font-size="16.8" lengthAdjust="spacingAndGlyphs" textLength="222">Device Connection Service</text><rect style="stroke:#a80036;stroke-width:1.7999999999999998" width="238.8" height="36.356" x="379.2" y="305.231" fill="#FEFECE" filter="url(#fo2kdhht50914)"/><text x="387.6" y="329.225" fill="#000" font-family="sans-serif" font-size="16.8" lengthAdjust="spacingAndGlyphs" textLength="222">Device Connection Service</text><rect style="stroke:#a80036;stroke-width:1.2" width="12" height="81.919" x="495" y="101.475" fill="#FFF" filter="url(#fo2kdhht50914)"/><polygon fill="#A80036" points="480.6 96.675 492.6 101.475 480.6 106.275 485.4 101.475" style="stroke:#a80036;stroke-width:1.2"/><line style="stroke:#a80036;stroke-width:1.2" x1="43.8" x2="487.8" y1="101.475" y2="101.475"/><text x="52.2" y="77.237" fill="#000" font-family="sans-serif" font-size="15.6" lengthAdjust="spacingAndGlyphs" textLength="428.4">transfer(subject: &quot;get-cmd-handling-adapter-instances&quot;,</text><text x="57" y="95.396" fill="#000" font-family="sans-serif" font-size="15.6" lengthAdjust="spacingAndGlyphs" textLength="410.4">device_id: &quot;device-1&quot;, payload: JSON with gateway ids)</text><path fill="#FBFB77" d="M285.6,117.075 L285.6,147.075 L711.6,147.075 L711.6,129.075 L699.6,117.075 L285.6,117.075" filter="url(#fo2kdhht50914)" style="stroke:#a80036;stroke-width:1.2"/><path fill="#FBFB77" d="M699.6,117.075 L699.6,129.075 L711.6,129.075 L699.6,117.075" style="stroke:#a80036;stroke-width:1.2"/><text x="292.8" y="137.555" fill="#000" font-family="sans-serif" font-size="15.6" lengthAdjust="spacingAndGlyphs" textLength="400.8">get command-handling adapter instances for device</text><polygon fill="#A80036" points="57 178.594 45 183.394 57 188.194 52.2 183.394" style="stroke:#a80036;stroke-width:1.2"/><line style="stroke:#a80036;stroke-width:1.2" x1="49.8" x2="499.8" y1="183.394" y2="183.394"/><text x="64.2" y="177.315" fill="#000" font-family="sans-serif" font-size="15.6" lengthAdjust="spacingAndGlyphs" textLength="330">transfer(status: &quot;200&quot;, body: JSON payload)</text><path fill="#FBFB77" d="M49.2,198.9938 L49.2,282.9938 L404.4,282.9938 L404.4,210.9938 L392.4,198.9938 L49.2,198.9938" filter="url(#fo2kdhht50914)" style="stroke:#a80036;stroke-width:1.2"/><path fill="#FBFB77" d="M392.4,198.9938 L392.4,210.9938 L404.4,210.9938 L392.4,198.9938" style="stroke:#a80036;stroke-width:1.2"/><text x="56.4" y="219.474" fill="#000" font-family="sans-serif" font-size="15.6" lengthAdjust="spacingAndGlyphs" textLength="330">JSON payload with &apos;adapter-instances&apos; field;</text><text x="56.4" y="237.633" fill="#000" font-family="sans-serif" font-size="15.6" lengthAdjust="spacingAndGlyphs" textLength="254.4">Value is array with objects having</text><text x="56.4" y="255.793" fill="#000" font-family="sans-serif" font-size="15.6" lengthAdjust="spacingAndGlyphs" textLength="79.2">- device-id</text><text x="56.4" y="273.952" fill="#000" font-family="sans-serif" font-size="15.6" lengthAdjust="spacingAndGlyphs" textLength="160.8">- adapter-instance-id</text></g></svg>