<svg xmlns="http://www.w3.org/2000/svg" xmlns:xlink="http://www.w3.org/1999/xlink" width="771.6" height="234" contentScriptType="application/ecmascript" contentStyleType="text/css" style="width:771px;height:234px" preserveAspectRatio="none" version="1.1" viewBox="0 0 771 234" zoomAndPan="magnify"><defs><filter id="fqm2tm43gwn4n" width="300%" height="300%" x="-1" y="-1"><feGaussianBlur result="blurOut" stdDeviation="2.4"/><feColorMatrix in="blurOut" result="blurOut2" type="matrix" values="0 0 0 0 0 0 0 0 0 0 0 0 0 0 0 0 0 0 .4 0"/><feOffset dx="4.8" dy="4.8" in="blurOut2" result="blurOut3"/><feBlend in="SourceGraphic" in2="blurOut3" mode="normal"/></filter></defs><g><rect style="stroke:#a80036;stroke-width:1.2" width="12" height="81.919" x="612.6" y="83.316" fill="#FFF" filter="url(#fqm2tm43gwn4n)"/><line style="stroke:#a80036;stroke-width:1.2;stroke-dasharray:5,5" x1="43.2" x2="43.2" y1="45.956" y2="186.834"/><line style="stroke:#a80036;stroke-width:1.2;stroke-dasharray:5,5" x1="618" x2="618" y1="45.956" y2="186.834"/><rect style="stroke:#a80036;stroke-width:1.7999999999999998" width="63.6" height="36.356" x="9.6" y="3.6" fill="#FEFECE" filter="url(#fqm2tm43gwn4n)"/><text x="18" y="27.594" fill="#000" font-family="sans-serif" font-size="16.8" lengthAdjust="spacingAndGlyphs" textLength="46.8">Client</text><rect style="stroke:#a80036;stroke-width:1.7999999999999998" width="63.6" height="36.356" x="9.6" y="185.634" fill="#FEFECE" filter="url(#fqm2tm43gwn4n)"/><text x="18" y="209.629" fill="#000" font-family="sans-serif" font-size="16.8" lengthAdjust="spacingAndGlyphs" textLength="46.8">Client</text><rect style="stroke:#a80036;stroke-width:1.7999999999999998" width="238.8" height="36.356" x="496.8" y="3.6" fill="#FEFECE" filter="url(#fqm2tm43gwn4n)"/><text x="505.2" y="27.594" fill="#000" font-family="sans-serif" font-size="16.8" lengthAdjust="spacingAndGlyphs" textLength="222">Device Connection Service</text><rect style="stroke:#a80036;stroke-width:1.7999999999999998" width="238.8" height="36.356" x="496.8" y="185.634" fill="#FEFECE" filter="url(#fqm2tm43gwn4n)"/><text x="505.2" y="209.629" fill="#000" font-family="sans-serif" font-size="16.8" lengthAdjust="spacingAndGlyphs" textLength="222">Device Connection Service</text><rect style="stroke:#a80036;stroke-width:1.2" width="12" height="81.919" x="612.6" y="83.316" fill="#FFF" filter="url(#fqm2tm43gwn4n)"/><polygon fill="#A80036" points="598.2 78.516 610.2 83.316 598.2 88.116 603 83.316" style="stroke:#a80036;stroke-width:1.2"/><line style="stroke:#a80036;stroke-width:1.2" x1="43.8" x2="605.4" y1="83.316" y2="83.316"/><text x="52.2" y="77.237" fill="#000" font-family="sans-serif" font-size="15.6" lengthAdjust="spacingAndGlyphs" textLength="546">transfer(subject: &quot;set-last-gw&quot;, device_id: &quot;device-1&quot;, gateway_id: &quot;gw-1)</text><path fill="#FBFB77" d="M475.2,98.9156 L475.2,128.9156 L757.2,128.9156 L757.2,110.9156 L745.2,98.9156 L475.2,98.9156" filter="url(#fqm2tm43gwn4n)" style="stroke:#a80036;stroke-width:1.2"/><path fill="#FBFB77" d="M745.2,98.9156 L745.2,110.9156 L757.2,110.9156 L745.2,98.9156" style="stroke:#a80036;stroke-width:1.2"/><text x="482.4" y="119.396" fill="#000" font-family="sans-serif" font-size="15.6" lengthAdjust="spacingAndGlyphs" textLength="256.8">set last known gateway for device</text><polygon fill="#A80036" points="57 160.434 45 165.234 57 170.034 52.2 165.234" style="stroke:#a80036;stroke-width:1.2"/><line style="stroke:#a80036;stroke-width:1.2" x1="49.8" x2="617.4" y1="165.234" y2="165.234"/><text x="64.2" y="159.155" fill="#000" font-family="sans-serif" font-size="15.6" lengthAdjust="spacingAndGlyphs" textLength="170.4">transfer(status: &quot;204&quot;)</text></g></svg>