<svg xmlns="http://www.w3.org/2000/svg" xmlns:xlink="http://www.w3.org/1999/xlink" width="691.2" height="253.2" contentScriptType="application/ecmascript" contentStyleType="text/css" style="width:691px;height:253px" preserveAspectRatio="none" version="1.1" viewBox="0 0 691 253" zoomAndPan="magnify"><defs><filter id="f1ejbj2o6zu4bx" width="300%" height="300%" x="-1" y="-1"><feGaussianBlur result="blurOut" stdDeviation="2.4"/><feColorMatrix in="blurOut" result="blurOut2" type="matrix" values="0 0 0 0 0 0 0 0 0 0 0 0 0 0 0 0 0 0 .4 0"/><feOffset dx="4.8" dy="4.8" in="blurOut2" result="blurOut3"/><feBlend in="SourceGraphic" in2="blurOut3" mode="normal"/></filter></defs><g><rect style="stroke:#a80036;stroke-width:1.2" width="12" height="81.919" x="498.6" y="101.475" fill="#FFF" filter="url(#f1ejbj2o6zu4bx)"/><line style="stroke:#a80036;stroke-width:1.2;stroke-dasharray:5,5" x1="43.2" x2="43.2" y1="45.956" y2="204.994"/><line style="stroke:#a80036;stroke-width:1.2;stroke-dasharray:5,5" x1="504.6" x2="504.6" y1="45.956" y2="204.994"/><rect style="stroke:#a80036;stroke-width:1.7999999999999998" width="63.6" height="36.356" x="9.6" y="3.6" fill="#FEFECE" filter="url(#f1ejbj2o6zu4bx)"/><text x="18" y="27.594" fill="#000" font-family="sans-serif" font-size="16.8" lengthAdjust="spacingAndGlyphs" textLength="46.8">Client</text><rect style="stroke:#a80036;stroke-width:1.7999999999999998" width="63.6" height="36.356" x="9.6" y="203.794" fill="#FEFECE" filter="url(#f1ejbj2o6zu4bx)"/><text x="18" y="227.788" fill="#000" font-family="sans-serif" font-size="16.8" lengthAdjust="spacingAndGlyphs" textLength="46.8">Client</text><rect style="stroke:#a80036;stroke-width:1.7999999999999998" width="228" height="36.356" x="388.2" y="3.6" fill="#FEFECE" filter="url(#f1ejbj2o6zu4bx)"/><text x="396.6" y="27.594" fill="#000" font-family="sans-serif" font-size="16.8" lengthAdjust="spacingAndGlyphs" textLength="211.2">Command Router Service</text><rect style="stroke:#a80036;stroke-width:1.7999999999999998" width="228" height="36.356" x="388.2" y="203.794" fill="#FEFECE" filter="url(#f1ejbj2o6zu4bx)"/><text x="396.6" y="227.788" fill="#000" font-family="sans-serif" font-size="16.8" lengthAdjust="spacingAndGlyphs" textLength="211.2">Command Router Service</text><rect style="stroke:#a80036;stroke-width:1.2" width="12" height="81.919" x="498.6" y="101.475" fill="#FFF" filter="url(#f1ejbj2o6zu4bx)"/><polygon fill="#A80036" points="484.2 96.675 496.2 101.475 484.2 106.275 489 101.475" style="stroke:#a80036;stroke-width:1.2"/><line style="stroke:#a80036;stroke-width:1.2" x1="43.8" x2="491.4" y1="101.475" y2="101.475"/><text x="52.2" y="77.237" fill="#000" font-family="sans-serif" font-size="15.6" lengthAdjust="spacingAndGlyphs" textLength="348">transfer(subject: &quot;unregister-cmd-consumer&quot;,</text><text x="57" y="95.396" fill="#000" font-family="sans-serif" font-size="15.6" lengthAdjust="spacingAndGlyphs" textLength="427.2">device_id: &quot;device-1&quot;, adapter_instance_id: &quot;adapter_1&quot;)</text><path fill="#FBFB77" d="M327.6,117.075 L327.6,147.075 L676.8,147.075 L676.8,129.075 L664.8,117.075 L327.6,117.075" filter="url(#f1ejbj2o6zu4bx)" style="stroke:#a80036;stroke-width:1.2"/><path fill="#FBFB77" d="M664.8,117.075 L664.8,129.075 L676.8,129.075 L664.8,117.075" style="stroke:#a80036;stroke-width:1.2"/><text x="334.8" y="137.555" fill="#000" font-family="sans-serif" font-size="15.6" lengthAdjust="spacingAndGlyphs" textLength="324">Unregister command consumer for device</text><polygon fill="#A80036" points="57 178.594 45 183.394 57 188.194 52.2 183.394" style="stroke:#a80036;stroke-width:1.2"/><line style="stroke:#a80036;stroke-width:1.2" x1="49.8" x2="503.4" y1="183.394" y2="183.394"/><text x="64.2" y="177.315" fill="#000" font-family="sans-serif" font-size="15.6" lengthAdjust="spacingAndGlyphs" textLength="170.4">transfer(status: &quot;204&quot;)</text></g></svg>