<svg xmlns="http://www.w3.org/2000/svg" xmlns:xlink="http://www.w3.org/1999/xlink" width="1008" height="258" contentScriptType="application/ecmascript" contentStyleType="text/css" style="width:1008px;height:258px" preserveAspectRatio="none" version="1.1" viewBox="0 0 1008 258" zoomAndPan="magnify"><defs><filter id="fb5qyniwb5b5d" width="300%" height="300%" x="-1" y="-1"><feGaussianBlur result="blurOut" stdDeviation="2.4"/><feColorMatrix in="blurOut" result="blurOut2" type="matrix" values="0 0 0 0 0 0 0 0 0 0 0 0 0 0 0 0 0 0 .4 0"/><feOffset dx="4.8" dy="4.8" in="blurOut2" result="blurOut3"/><feBlend in="SourceGraphic" in2="blurOut3" mode="normal"/></filter></defs><g><rect style="stroke:#a80036;stroke-width:1.2" width="12" height="104.878" x="501" y="83.316" fill="#FFF" filter="url(#fb5qyniwb5b5d)"/><rect style="stroke:#a80036;stroke-width:1.2" width="12" height="34.959" x="858.6" y="118.275" fill="#FFF" filter="url(#fb5qyniwb5b5d)"/><line style="stroke:#a80036;stroke-width:1.2;stroke-dasharray:5,5" x1="48" x2="48" y1="45.956" y2="209.794"/><line style="stroke:#a80036;stroke-width:1.2;stroke-dasharray:5,5" x1="506.4" x2="506.4" y1="45.956" y2="209.794"/><line style="stroke:#a80036;stroke-width:1.2;stroke-dasharray:5,5" x1="864" x2="864" y1="45.956" y2="209.794"/><rect style="stroke:#a80036;stroke-width:1.7999999999999998" width="73.2" height="36.356" x="9.6" y="3.6" fill="#FEFECE" filter="url(#fb5qyniwb5b5d)"/><text x="18" y="27.594" fill="#000" font-family="sans-serif" font-size="16.8" lengthAdjust="spacingAndGlyphs" textLength="56.4">Device</text><rect style="stroke:#a80036;stroke-width:1.7999999999999998" width="73.2" height="36.356" x="9.6" y="208.594" fill="#FEFECE" filter="url(#fb5qyniwb5b5d)"/><text x="18" y="232.588" fill="#000" font-family="sans-serif" font-size="16.8" lengthAdjust="spacingAndGlyphs" textLength="56.4">Device</text><rect style="stroke:#a80036;stroke-width:1.7999999999999998" width="130.8" height="36.356" x="439.2" y="3.6" fill="#FEFECE" filter="url(#fb5qyniwb5b5d)"/><text x="447.6" y="27.594" fill="#000" font-family="sans-serif" font-size="16.8" lengthAdjust="spacingAndGlyphs" textLength="114">HTTP Adapter</text><rect style="stroke:#a80036;stroke-width:1.7999999999999998" width="130.8" height="36.356" x="439.2" y="208.594" fill="#FEFECE" filter="url(#fb5qyniwb5b5d)"/><text x="447.6" y="232.588" fill="#000" font-family="sans-serif" font-size="16.8" lengthAdjust="spacingAndGlyphs" textLength="114">HTTP Adapter</text><rect style="stroke:#a80036;stroke-width:1.7999999999999998" width="265.2" height="36.356" x="729.6" y="3.6" fill="#FEFECE" filter="url(#fb5qyniwb5b5d)"/><text x="738" y="27.594" fill="#000" font-family="sans-serif" font-size="16.8" lengthAdjust="spacingAndGlyphs" textLength="248.4">AMQP 1.0 Messaging Network</text><rect style="stroke:#a80036;stroke-width:1.7999999999999998" width="265.2" height="36.356" x="729.6" y="208.594" fill="#FEFECE" filter="url(#fb5qyniwb5b5d)"/><text x="738" y="232.588" fill="#000" font-family="sans-serif" font-size="16.8" lengthAdjust="spacingAndGlyphs" textLength="248.4">AMQP 1.0 Messaging Network</text><rect style="stroke:#a80036;stroke-width:1.2" width="12" height="104.878" x="501" y="83.316" fill="#FFF" filter="url(#fb5qyniwb5b5d)"/><rect style="stroke:#a80036;stroke-width:1.2" width="12" height="34.959" x="858.6" y="118.275" fill="#FFF" filter="url(#fb5qyniwb5b5d)"/><polygon fill="#A80036" points="486.6 78.516 498.6 83.316 486.6 88.116 491.4 83.316" style="stroke:#a80036;stroke-width:1.2"/><line style="stroke:#a80036;stroke-width:1.2" x1="48.6" x2="493.8" y1="83.316" y2="83.316"/><text x="57" y="77.237" fill="#000" font-family="sans-serif" font-size="15.6" lengthAdjust="spacingAndGlyphs" textLength="429.6">1.0 PUT(&quot;telemetry/TENANT/4711&quot;, &quot;QoS-Level: 1&quot;, data)</text><polygon fill="#A80036" points="844.2 113.475 856.2 118.275 844.2 123.075 849 118.275" style="stroke:#a80036;stroke-width:1.2"/><line style="stroke:#a80036;stroke-width:1.2" x1="513" x2="851.4" y1="118.275" y2="118.275"/><text x="521.4" y="112.196" fill="#000" font-family="sans-serif" font-size="15.6" lengthAdjust="spacingAndGlyphs" textLength="322.8">1.1 transfer(device_id: &quot;4711&quot;, body: data)</text><polygon fill="#A80036" points="526.2 148.434 514.2 153.234 526.2 158.034 521.4 153.234" style="stroke:#a80036;stroke-width:1.2"/><line style="stroke:#a80036;stroke-width:1.2" x1="519" x2="863.4" y1="153.234" y2="153.234"/><text x="533.4" y="147.155" fill="#000" font-family="sans-serif" font-size="15.6" lengthAdjust="spacingAndGlyphs" textLength="254.4">1.2 disposition(state: &quot;accepted&quot;)</text><polygon fill="#A80036" points="61.8 183.394 49.8 188.194 61.8 192.994 57 188.194" style="stroke:#a80036;stroke-width:1.2"/><line style="stroke:#a80036;stroke-width:1.2" x1="54.6" x2="505.8" y1="188.194" y2="188.194"/><text x="69" y="182.115" fill="#000" font-family="sans-serif" font-size="15.6" lengthAdjust="spacingAndGlyphs" textLength="146.4">1.3 202 (Accepted)</text></g></svg>