<svg xmlns="http://www.w3.org/2000/svg" xmlns:xlink="http://www.w3.org/1999/xlink" width="777.6" height="234" contentScriptType="application/ecmascript" contentStyleType="text/css" style="width:777px;height:234px" preserveAspectRatio="none" version="1.1" viewBox="0 0 777 234" zoomAndPan="magnify"><defs><filter id="f522yk1blx9om" width="300%" height="300%" x="-1" y="-1"><feGaussianBlur result="blurOut" stdDeviation="2.4"/><feColorMatrix in="blurOut" result="blurOut2" type="matrix" values="0 0 0 0 0 0 0 0 0 0 0 0 0 0 0 0 0 0 .4 0"/><feOffset dx="4.8" dy="4.8" in="blurOut2" result="blurOut3"/><feBlend in="SourceGraphic" in2="blurOut3" mode="normal"/></filter></defs><g><line style="stroke:#a80036;stroke-width:1.2;stroke-dasharray:5,5" x1="115.2" x2="115.2" y1="45.956" y2="186.834"/><line style="stroke:#a80036;stroke-width:1.2;stroke-dasharray:5,5" x1="672.6" x2="672.6" y1="45.956" y2="186.834"/><rect style="stroke:#a80036;stroke-width:1.7999999999999998" width="170.4" height="36.356" x="27.6" y="3.6" fill="#FEFECE" filter="url(#f522yk1blx9om)"/><text x="36" y="27.594" fill="#000" font-family="sans-serif" font-size="16.8" lengthAdjust="spacingAndGlyphs" textLength="153.6">AMQP 1.0 Network</text><rect style="stroke:#a80036;stroke-width:1.7999999999999998" width="170.4" height="36.356" x="27.6" y="185.634" fill="#FEFECE" filter="url(#f522yk1blx9om)"/><text x="36" y="209.629" fill="#000" font-family="sans-serif" font-size="16.8" lengthAdjust="spacingAndGlyphs" textLength="153.6">AMQP 1.0 Network</text><rect style="stroke:#a80036;stroke-width:1.7999999999999998" width="188.4" height="36.356" x="576.6" y="3.6" fill="#FEFECE" filter="url(#f522yk1blx9om)"/><text x="585" y="27.594" fill="#000" font-family="sans-serif" font-size="16.8" lengthAdjust="spacingAndGlyphs" textLength="171.6">Business Application</text><rect style="stroke:#a80036;stroke-width:1.7999999999999998" width="188.4" height="36.356" x="576.6" y="185.634" fill="#FEFECE" filter="url(#f522yk1blx9om)"/><text x="585" y="209.629" fill="#000" font-family="sans-serif" font-size="16.8" lengthAdjust="spacingAndGlyphs" textLength="171.6">Business Application</text><polygon fill="#A80036" points="128.4 78.516 116.4 83.316 128.4 88.116 123.6 83.316" style="stroke:#a80036;stroke-width:1.2"/><line style="stroke:#a80036;stroke-width:1.2" x1="121.2" x2="672" y1="83.316" y2="83.316"/><text x="135.6" y="77.237" fill="#000" font-family="sans-serif" font-size="15.6" lengthAdjust="spacingAndGlyphs" textLength="529.2">transfer(to: &quot;command/DEFAULT_TENANT/4711&quot;, subject: &quot;switchOn&quot;)</text><path fill="#FBFB77" d="M9.6,98.9156 L9.6,128.9156 L216,128.9156 L216,110.9156 L204,98.9156 L9.6,98.9156" filter="url(#f522yk1blx9om)" style="stroke:#a80036;stroke-width:1.2"/><path fill="#FBFB77" d="M204,98.9156 L204,110.9156 L216,110.9156 L204,98.9156" style="stroke:#a80036;stroke-width:1.2"/><text x="16.8" y="119.396" fill="#000" font-family="sans-serif" font-size="15.6" lengthAdjust="spacingAndGlyphs" textLength="181.2">device is not connected</text><polygon fill="#A80036" points="658.8 160.434 670.8 165.234 658.8 170.034 663.6 165.234" style="stroke:#a80036;stroke-width:1.2"/><line style="stroke:#a80036;stroke-width:1.2" x1="115.2" x2="666" y1="165.234" y2="165.234"/><text x="123.6" y="159.155" fill="#000" font-family="sans-serif" font-size="15.6" lengthAdjust="spacingAndGlyphs" textLength="220.8">disposition(state: &quot;released&quot;)</text></g></svg>