<svg xmlns="http://www.w3.org/2000/svg" xmlns:xlink="http://www.w3.org/1999/xlink" width="790.8" height="318" contentScriptType="application/ecmascript" contentStyleType="text/css" style="width:790px;height:318px" preserveAspectRatio="none" version="1.1" viewBox="0 0 790 318" zoomAndPan="magnify"><defs><filter id="f10hxv9l3i6bed" width="300%" height="300%" x="-1" y="-1"><feGaussianBlur result="blurOut" stdDeviation="2.4"/><feColorMatrix in="blurOut" result="blurOut2" type="matrix" values="0 0 0 0 0 0 0 0 0 0 0 0 0 0 0 0 0 0 .4 0"/><feOffset dx="4.8" dy="4.8" in="blurOut2" result="blurOut3"/><feBlend in="SourceGraphic" in2="blurOut3" mode="normal"/></filter></defs><g><line style="stroke:#a80036;stroke-width:1.2;stroke-dasharray:5,5" x1="116.4" x2="116.4" y1="45.956" y2="270.113"/><line style="stroke:#a80036;stroke-width:1.2;stroke-dasharray:5,5" x1="673.8" x2="673.8" y1="45.956" y2="270.113"/><rect style="stroke:#a80036;stroke-width:1.7999999999999998" width="170.4" height="36.356" x="28.8" y="3.6" fill="#FEFECE" filter="url(#f10hxv9l3i6bed)"/><text x="37.2" y="27.594" fill="#000" font-family="sans-serif" font-size="16.8" lengthAdjust="spacingAndGlyphs" textLength="153.6">AMQP 1.0 Network</text><rect style="stroke:#a80036;stroke-width:1.7999999999999998" width="170.4" height="36.356" x="28.8" y="268.913" fill="#FEFECE" filter="url(#f10hxv9l3i6bed)"/><text x="37.2" y="292.907" fill="#000" font-family="sans-serif" font-size="16.8" lengthAdjust="spacingAndGlyphs" textLength="153.6">AMQP 1.0 Network</text><rect style="stroke:#a80036;stroke-width:1.7999999999999998" width="188.4" height="36.356" x="577.8" y="3.6" fill="#FEFECE" filter="url(#f10hxv9l3i6bed)"/><text x="586.2" y="27.594" fill="#000" font-family="sans-serif" font-size="16.8" lengthAdjust="spacingAndGlyphs" textLength="171.6">Business Application</text><rect style="stroke:#a80036;stroke-width:1.7999999999999998" width="188.4" height="36.356" x="577.8" y="268.913" fill="#FEFECE" filter="url(#f10hxv9l3i6bed)"/><text x="586.2" y="292.907" fill="#000" font-family="sans-serif" font-size="16.8" lengthAdjust="spacingAndGlyphs" textLength="171.6">Business Application</text><polygon fill="#A80036" points="129.6 78.516 117.6 83.316 129.6 88.116 124.8 83.316" style="stroke:#a80036;stroke-width:1.2"/><line style="stroke:#a80036;stroke-width:1.2" x1="122.4" x2="673.2" y1="83.316" y2="83.316"/><text x="136.8" y="77.237" fill="#000" font-family="sans-serif" font-size="15.6" lengthAdjust="spacingAndGlyphs" textLength="529.2">transfer(to: &quot;command/DEFAULT_TENANT/4711&quot;, subject: &quot;switchOn&quot;)</text><path fill="#FBFB77" d="M9.6,98.9156 L9.6,128.9156 L218.4,128.9156 L218.4,110.9156 L206.4,98.9156 L9.6,98.9156" filter="url(#f10hxv9l3i6bed)" style="stroke:#a80036;stroke-width:1.2"/><path fill="#FBFB77" d="M206.4,98.9156 L206.4,110.9156 L218.4,110.9156 L206.4,98.9156" style="stroke:#a80036;stroke-width:1.2"/><text x="16.8" y="119.396" fill="#000" font-family="sans-serif" font-size="15.6" lengthAdjust="spacingAndGlyphs" textLength="183.6">command is malformed</text><polygon fill="#A80036" points="660 160.434 672 165.234 660 170.034 664.8 165.234" style="stroke:#a80036;stroke-width:1.2"/><line style="stroke:#a80036;stroke-width:1.2" x1="116.4" x2="667.2" y1="165.234" y2="165.234"/><text x="124.8" y="159.155" fill="#000" font-family="sans-serif" font-size="15.6" lengthAdjust="spacingAndGlyphs" textLength="217.2">disposition(state: &quot;rejected&quot;)</text><path fill="#FBFB77" d="M567.6,180.8344 L567.6,246.8344 L776.4,246.8344 L776.4,192.8344 L764.4,180.8344 L567.6,180.8344" filter="url(#f10hxv9l3i6bed)" style="stroke:#a80036;stroke-width:1.2"/><path fill="#FBFB77" d="M764.4,180.8344 L764.4,192.8344 L776.4,192.8344 L764.4,180.8344" style="stroke:#a80036;stroke-width:1.2"/><text x="574.8" y="201.315" fill="#000" font-family="sans-serif" font-size="15.6" lengthAdjust="spacingAndGlyphs" textLength="139.2">may want to close</text><text x="574.8" y="219.474" fill="#000" font-family="sans-serif" font-size="15.6" lengthAdjust="spacingAndGlyphs" textLength="100.8">response link</text><text x="574.8" y="237.633" fill="#000" font-family="sans-serif" font-size="15.6" lengthAdjust="spacingAndGlyphs" textLength="183.6">(if scoped to command)</text></g></svg>