<svg xmlns="http://www.w3.org/2000/svg" xmlns:xlink="http://www.w3.org/1999/xlink" width="777.6" height="434.4" contentScriptType="application/ecmascript" contentStyleType="text/css" style="width:777px;height:434px" preserveAspectRatio="none" version="1.1" viewBox="0 0 777 434" zoomAndPan="magnify"><defs><filter id="fwzdake5u3445" width="300%" height="300%" x="-1" y="-1"><feGaussianBlur result="blurOut" stdDeviation="2.4"/><feColorMatrix in="blurOut" result="blurOut2" type="matrix" values="0 0 0 0 0 0 0 0 0 0 0 0 0 0 0 0 0 0 .4 0"/><feOffset dx="4.8" dy="4.8" in="blurOut2" result="blurOut3"/><feBlend in="SourceGraphic" in2="blurOut3" mode="normal"/></filter></defs><g><line style="stroke:#a80036;stroke-width:1.2;stroke-dasharray:5,5" x1="97.2" x2="97.2" y1="45.956" y2="386.991"/><line style="stroke:#a80036;stroke-width:1.2;stroke-dasharray:5,5" x1="672.6" x2="672.6" y1="45.956" y2="386.991"/><rect style="stroke:#a80036;stroke-width:1.7999999999999998" width="170.4" height="36.356" x="9.6" y="3.6" fill="#FEFECE" filter="url(#fwzdake5u3445)"/><text x="18" y="27.594" fill="#000" font-family="sans-serif" font-size="16.8" lengthAdjust="spacingAndGlyphs" textLength="153.6">AMQP 1.0 Network</text><rect style="stroke:#a80036;stroke-width:1.7999999999999998" width="170.4" height="36.356" x="9.6" y="385.791" fill="#FEFECE" filter="url(#fwzdake5u3445)"/><text x="18" y="409.785" fill="#000" font-family="sans-serif" font-size="16.8" lengthAdjust="spacingAndGlyphs" textLength="153.6">AMQP 1.0 Network</text><rect style="stroke:#a80036;stroke-width:1.7999999999999998" width="188.4" height="36.356" x="576.6" y="3.6" fill="#FEFECE" filter="url(#fwzdake5u3445)"/><text x="585" y="27.594" fill="#000" font-family="sans-serif" font-size="16.8" lengthAdjust="spacingAndGlyphs" textLength="171.6">Business Application</text><rect style="stroke:#a80036;stroke-width:1.7999999999999998" width="188.4" height="36.356" x="576.6" y="385.791" fill="#FEFECE" filter="url(#fwzdake5u3445)"/><text x="585" y="409.785" fill="#000" font-family="sans-serif" font-size="16.8" lengthAdjust="spacingAndGlyphs" textLength="171.6">Business Application</text><polygon fill="#A80036" points="110.4 78.516 98.4 83.316 110.4 88.116 105.6 83.316" style="stroke:#a80036;stroke-width:1.2"/><line style="stroke:#a80036;stroke-width:1.2" x1="103.2" x2="672" y1="83.316" y2="83.316"/><text x="117.6" y="77.237" fill="#000" font-family="sans-serif" font-size="15.6" lengthAdjust="spacingAndGlyphs" textLength="547.2">transfer(to: &quot;command/DEFAULT_TENANT/4711&quot;, subject: &quot;getReading&quot;)</text><path fill="#FBFB77" d="M12,98.9156 L12,146.9156 L176.4,146.9156 L176.4,110.9156 L164.4,98.9156 L12,98.9156" filter="url(#fwzdake5u3445)" style="stroke:#a80036;stroke-width:1.2"/><path fill="#FBFB77" d="M164.4,98.9156 L164.4,110.9156 L176.4,110.9156 L164.4,98.9156" style="stroke:#a80036;stroke-width:1.2"/><text x="19.2" y="119.396" fill="#000" font-family="sans-serif" font-size="15.6" lengthAdjust="spacingAndGlyphs" textLength="139.2">forward command</text><text x="19.2" y="137.555" fill="#000" font-family="sans-serif" font-size="15.6" lengthAdjust="spacingAndGlyphs" textLength="69.6">to device</text><polygon fill="#A80036" points="658.8 178.594 670.8 183.394 658.8 188.194 663.6 183.394" style="stroke:#a80036;stroke-width:1.2"/><line style="stroke:#a80036;stroke-width:1.2" x1="97.2" x2="666" y1="183.394" y2="183.394"/><text x="105.6" y="177.315" fill="#000" font-family="sans-serif" font-size="15.6" lengthAdjust="spacingAndGlyphs" textLength="225.6">disposition(state: &quot;accepted&quot;)</text><path fill="#FBFB77" d="M16.8,198.9938 L16.8,246.9937 L172.8,246.9937 L172.8,210.9938 L160.8,198.9938 L16.8,198.9938" filter="url(#fwzdake5u3445)" style="stroke:#a80036;stroke-width:1.2"/><path fill="#FBFB77" d="M160.8,198.9938 L160.8,210.9938 L172.8,210.9938 L160.8,198.9938" style="stroke:#a80036;stroke-width:1.2"/><text x="24" y="219.474" fill="#000" font-family="sans-serif" font-size="15.6" lengthAdjust="spacingAndGlyphs" textLength="130.8">wait for response</text><text x="24" y="237.633" fill="#000" font-family="sans-serif" font-size="15.6" lengthAdjust="spacingAndGlyphs" textLength="90">from device</text><polygon fill="#A80036" points="658.8 278.672 670.8 283.472 658.8 288.272 663.6 283.472" style="stroke:#a80036;stroke-width:1.2"/><line style="stroke:#a80036;stroke-width:1.2" x1="97.2" x2="666" y1="283.472" y2="283.472"/><text x="105.6" y="277.393" fill="#000" font-family="sans-serif" font-size="15.6" lengthAdjust="spacingAndGlyphs" textLength="318">transfer(status: &quot;200&quot;, body: sensor data)</text><path fill="#FBFB77" d="M590.4,299.0719 L590.4,329.0719 L751.2,329.0719 L751.2,311.0719 L739.2,299.0719 L590.4,299.0719" filter="url(#fwzdake5u3445)" style="stroke:#a80036;stroke-width:1.2"/><path fill="#FBFB77" d="M739.2,299.0719 L739.2,311.0719 L751.2,311.0719 L739.2,299.0719" style="stroke:#a80036;stroke-width:1.2"/><text x="597.6" y="319.552" fill="#000" font-family="sans-serif" font-size="15.6" lengthAdjust="spacingAndGlyphs" textLength="135.6">process response</text><polygon fill="#A80036" points="110.4 360.591 98.4 365.391 110.4 370.191 105.6 365.391" style="stroke:#a80036;stroke-width:1.2"/><line style="stroke:#a80036;stroke-width:1.2" x1="103.2" x2="672" y1="365.391" y2="365.391"/><text x="117.6" y="359.312" fill="#000" font-family="sans-serif" font-size="15.6" lengthAdjust="spacingAndGlyphs" textLength="225.6">disposition(state: &quot;accepted&quot;)</text></g></svg>