<svg xmlns="http://www.w3.org/2000/svg" xmlns:xlink="http://www.w3.org/1999/xlink" width="858" height="471.6" contentScriptType="application/ecmascript" contentStyleType="text/css" style="width:858px;height:471px" preserveAspectRatio="none" version="1.1" viewBox="0 0 858 471" zoomAndPan="magnify"><defs><filter id="f1p9gym2onaiff" width="300%" height="300%" x="-1" y="-1"><feGaussianBlur result="blurOut" stdDeviation="2.4"/><feColorMatrix in="blurOut" result="blurOut2" type="matrix" values="0 0 0 0 0 0 0 0 0 0 0 0 0 0 0 0 0 0 .4 0"/><feOffset dx="4.8" dy="4.8" in="blurOut2" result="blurOut3"/><feBlend in="SourceGraphic" in2="blurOut3" mode="normal"/></filter></defs><g><rect style="stroke:#a80036;stroke-width:1.2" width="12" height="34.959" x="667.2" y="183.394" fill="#FFF" filter="url(#f1p9gym2onaiff)"/><line style="stroke:#a80036;stroke-width:1.2;stroke-dasharray:5,5" x1="97.2" x2="97.2" y1="45.956" y2="423.309"/><line style="stroke:#a80036;stroke-width:1.2;stroke-dasharray:5,5" x1="672.6" x2="672.6" y1="45.956" y2="423.309"/><line style="stroke:#a80036;stroke-width:1.2;stroke-dasharray:5,5" x1="815.4" x2="815.4" y1="45.956" y2="423.309"/><rect style="stroke:#a80036;stroke-width:1.7999999999999998" width="170.4" height="36.356" x="9.6" y="3.6" fill="#FEFECE" filter="url(#f1p9gym2onaiff)"/><text x="18" y="27.594" fill="#000" font-family="sans-serif" font-size="16.8" lengthAdjust="spacingAndGlyphs" textLength="153.6">AMQP 1.0 Network</text><rect style="stroke:#a80036;stroke-width:1.7999999999999998" width="170.4" height="36.356" x="9.6" y="422.109" fill="#FEFECE" filter="url(#f1p9gym2onaiff)"/><text x="18" y="446.103" fill="#000" font-family="sans-serif" font-size="16.8" lengthAdjust="spacingAndGlyphs" textLength="153.6">AMQP 1.0 Network</text><rect style="stroke:#a80036;stroke-width:1.7999999999999998" width="188.4" height="36.356" x="576.6" y="3.6" fill="#FEFECE" filter="url(#f1p9gym2onaiff)"/><text x="585" y="27.594" fill="#000" font-family="sans-serif" font-size="16.8" lengthAdjust="spacingAndGlyphs" textLength="171.6">Business Application</text><rect style="stroke:#a80036;stroke-width:1.7999999999999998" width="188.4" height="36.356" x="576.6" y="422.109" fill="#FEFECE" filter="url(#f1p9gym2onaiff)"/><text x="585" y="446.103" fill="#000" font-family="sans-serif" font-size="16.8" lengthAdjust="spacingAndGlyphs" textLength="171.6">Business Application</text><rect style="stroke:#a80036;stroke-width:1.7999999999999998" width="63.6" height="36.356" x="781.8" y="3.6" fill="#FEFECE" filter="url(#f1p9gym2onaiff)"/><text x="790.2" y="27.594" fill="#000" font-family="sans-serif" font-size="16.8" lengthAdjust="spacingAndGlyphs" textLength="46.8">Timer</text><rect style="stroke:#a80036;stroke-width:1.7999999999999998" width="63.6" height="36.356" x="781.8" y="422.109" fill="#FEFECE" filter="url(#f1p9gym2onaiff)"/><text x="790.2" y="446.103" fill="#000" font-family="sans-serif" font-size="16.8" lengthAdjust="spacingAndGlyphs" textLength="46.8">Timer</text><rect style="stroke:#a80036;stroke-width:1.2" width="12" height="34.959" x="667.2" y="183.394" fill="#FFF" filter="url(#f1p9gym2onaiff)"/><polygon fill="#A80036" points="110.4 78.516 98.4 83.316 110.4 88.116 105.6 83.316" style="stroke:#a80036;stroke-width:1.2"/><line style="stroke:#a80036;stroke-width:1.2" x1="103.2" x2="672" y1="83.316" y2="83.316"/><text x="117.6" y="77.237" fill="#000" font-family="sans-serif" font-size="15.6" lengthAdjust="spacingAndGlyphs" textLength="547.2">transfer(to: &quot;command/DEFAULT_TENANT/4711&quot;, subject: &quot;getReading&quot;)</text><path fill="#FBFB77" d="M12,98.9156 L12,146.9156 L176.4,146.9156 L176.4,110.9156 L164.4,98.9156 L12,98.9156" filter="url(#f1p9gym2onaiff)" style="stroke:#a80036;stroke-width:1.2"/><path fill="#FBFB77" d="M164.4,98.9156 L164.4,110.9156 L176.4,110.9156 L164.4,98.9156" style="stroke:#a80036;stroke-width:1.2"/><text x="19.2" y="119.396" fill="#000" font-family="sans-serif" font-size="15.6" lengthAdjust="spacingAndGlyphs" textLength="139.2">forward command</text><text x="19.2" y="137.555" fill="#000" font-family="sans-serif" font-size="15.6" lengthAdjust="spacingAndGlyphs" textLength="69.6">to device</text><polygon fill="#A80036" points="652.8 178.594 664.8 183.394 652.8 188.194 657.6 183.394" style="stroke:#a80036;stroke-width:1.2"/><line style="stroke:#a80036;stroke-width:1.2" x1="97.2" x2="660" y1="183.394" y2="183.394"/><text x="105.6" y="177.315" fill="#000" font-family="sans-serif" font-size="15.6" lengthAdjust="spacingAndGlyphs" textLength="225.6">disposition(state: &quot;accepted&quot;)</text><polygon fill="#A80036" points="801.6 213.553 813.6 218.353 801.6 223.153 806.4 218.353" style="stroke:#a80036;stroke-width:1.2"/><line style="stroke:#a80036;stroke-width:1.2" x1="673.2" x2="808.8" y1="218.353" y2="218.353"/><text x="681.6" y="212.274" fill="#000" font-family="sans-serif" font-size="15.6" lengthAdjust="spacingAndGlyphs" textLength="36">start</text><path fill="#FBFB77" d="M592.8,233.9531 L592.8,281.9531 L748.8,281.9531 L748.8,245.9531 L736.8,233.9531 L592.8,233.9531" filter="url(#f1p9gym2onaiff)" style="stroke:#a80036;stroke-width:1.2"/><path fill="#FBFB77" d="M736.8,233.9531 L736.8,245.9531 L748.8,245.9531 L736.8,233.9531" style="stroke:#a80036;stroke-width:1.2"/><text x="600" y="254.433" fill="#000" font-family="sans-serif" font-size="15.6" lengthAdjust="spacingAndGlyphs" textLength="130.8">wait for response</text><text x="600" y="272.593" fill="#000" font-family="sans-serif" font-size="15.6" lengthAdjust="spacingAndGlyphs" textLength="90">from device</text><polygon fill="#A80036" points="686.4 313.631 674.4 318.431 686.4 323.231 681.6 318.431" style="stroke:#a80036;stroke-width:1.2"/><line style="stroke:#a80036;stroke-width:1.2" x1="679.2" x2="814.8" y1="318.431" y2="318.431"/><text x="693.6" y="312.352" fill="#000" font-family="sans-serif" font-size="15.6" lengthAdjust="spacingAndGlyphs" textLength="104.4">fail command</text><path fill="#FBFB77" d="M566.4,334.0313 L566.4,400.0313 L775.2,400.0313 L775.2,346.0313 L763.2,334.0313 L566.4,334.0313" filter="url(#f1p9gym2onaiff)" style="stroke:#a80036;stroke-width:1.2"/><path fill="#FBFB77" d="M763.2,334.0313 L763.2,346.0313 L775.2,346.0313 L763.2,334.0313" style="stroke:#a80036;stroke-width:1.2"/><text x="573.6" y="354.512" fill="#000" font-family="sans-serif" font-size="15.6" lengthAdjust="spacingAndGlyphs" textLength="139.2">may want to close</text><text x="573.6" y="372.671" fill="#000" font-family="sans-serif" font-size="15.6" lengthAdjust="spacingAndGlyphs" textLength="100.8">response link</text><text x="573.6" y="390.83" fill="#000" font-family="sans-serif" font-size="15.6" lengthAdjust="spacingAndGlyphs" textLength="183.6">(if scoped to command)</text></g></svg>