<svg xmlns="http://www.w3.org/2000/svg" xmlns:xlink="http://www.w3.org/1999/xlink" width="619.2" height="258" contentScriptType="application/ecmascript" contentStyleType="text/css" style="width:619px;height:258px" preserveAspectRatio="none" version="1.1" viewBox="0 0 619 258" zoomAndPan="magnify"><defs><filter id="fjqnkoz0hmfro" width="300%" height="300%" x="-1" y="-1"><feGaussianBlur result="blurOut" stdDeviation="2.4"/><feColorMatrix in="blurOut" result="blurOut2" type="matrix" values="0 0 0 0 0 0 0 0 0 0 0 0 0 0 0 0 0 0 .4 0"/><feOffset dx="4.8" dy="4.8" in="blurOut2" result="blurOut3"/><feBlend in="SourceGraphic" in2="blurOut3" mode="normal"/></filter></defs><g><line style="stroke:#a80036;stroke-width:1.2;stroke-dasharray:5,5" x1="97.2" x2="97.2" y1="45.956" y2="209.794"/><line style="stroke:#a80036;stroke-width:1.2;stroke-dasharray:5,5" x1="514.2" x2="514.2" y1="45.956" y2="209.794"/><rect style="stroke:#a80036;stroke-width:1.7999999999999998" width="170.4" height="36.356" x="9.6" y="3.6" fill="#FEFECE" filter="url(#fjqnkoz0hmfro)"/><text x="18" y="27.594" fill="#000" font-family="sans-serif" font-size="16.8" lengthAdjust="spacingAndGlyphs" textLength="153.6">AMQP 1.0 Network</text><rect style="stroke:#a80036;stroke-width:1.7999999999999998" width="170.4" height="36.356" x="9.6" y="208.594" fill="#FEFECE" filter="url(#fjqnkoz0hmfro)"/><text x="18" y="232.588" fill="#000" font-family="sans-serif" font-size="16.8" lengthAdjust="spacingAndGlyphs" textLength="153.6">AMQP 1.0 Network</text><rect style="stroke:#a80036;stroke-width:1.7999999999999998" width="188.4" height="36.356" x="418.2" y="3.6" fill="#FEFECE" filter="url(#fjqnkoz0hmfro)"/><text x="426.6" y="27.594" fill="#000" font-family="sans-serif" font-size="16.8" lengthAdjust="spacingAndGlyphs" textLength="171.6">Business Application</text><rect style="stroke:#a80036;stroke-width:1.7999999999999998" width="188.4" height="36.356" x="418.2" y="208.594" fill="#FEFECE" filter="url(#fjqnkoz0hmfro)"/><text x="426.6" y="232.588" fill="#000" font-family="sans-serif" font-size="16.8" lengthAdjust="spacingAndGlyphs" textLength="171.6">Business Application</text><polygon fill="#A80036" points="110.4 78.516 98.4 83.316 110.4 88.116 105.6 83.316" style="stroke:#a80036;stroke-width:1.2"/><line style="stroke:#a80036;stroke-width:1.2" x1="103.2" x2="513.6" y1="83.316" y2="83.316"/><text x="117.6" y="77.237" fill="#000" font-family="sans-serif" font-size="15.6" lengthAdjust="spacingAndGlyphs" textLength="50.4">open()</text><polygon fill="#A80036" points="500.4 113.475 512.4 118.275 500.4 123.075 505.2 118.275" style="stroke:#a80036;stroke-width:1.2"/><line style="stroke:#a80036;stroke-width:1.2" x1="97.2" x2="507.6" y1="118.275" y2="118.275"/><text x="105.6" y="112.196" fill="#000" font-family="sans-serif" font-size="15.6" lengthAdjust="spacingAndGlyphs" textLength="50.4">open()</text><polygon fill="#A80036" points="110.4 148.434 98.4 153.234 110.4 158.034 105.6 153.234" style="stroke:#a80036;stroke-width:1.2"/><line style="stroke:#a80036;stroke-width:1.2" x1="103.2" x2="513.6" y1="153.234" y2="153.234"/><text x="117.6" y="147.155" fill="#000" font-family="sans-serif" font-size="15.6" lengthAdjust="spacingAndGlyphs" textLength="375.6">attach(sender, target: &quot;command/${tenant_id}&quot;)</text><polygon fill="#A80036" points="500.4 183.394 512.4 188.194 500.4 192.994 505.2 188.194" style="stroke:#a80036;stroke-width:1.2"/><line style="stroke:#a80036;stroke-width:1.2" x1="97.2" x2="507.6" y1="188.194" y2="188.194"/><text x="105.6" y="182.115" fill="#000" font-family="sans-serif" font-size="15.6" lengthAdjust="spacingAndGlyphs" textLength="388.8">attach(receiver, source: &quot;command/${tenant_id}&quot;)</text></g></svg>