<svg xmlns="http://www.w3.org/2000/svg" xmlns:xlink="http://www.w3.org/1999/xlink" width="470.4" height="544.8" contentScriptType="application/ecmascript" contentStyleType="text/css" style="width:470px;height:544px" preserveAspectRatio="none" version="1.1" viewBox="0 0 470 544" zoomAndPan="magnify"><defs><filter id="fqoijhe1a4k0w" width="300%" height="300%" x="-1" y="-1"><feGaussianBlur result="blurOut" stdDeviation="2.4"/><feColorMatrix in="blurOut" result="blurOut2" type="matrix" values="0 0 0 0 0 0 0 0 0 0 0 0 0 0 0 0 0 0 .4 0"/><feOffset dx="4.8" dy="4.8" in="blurOut2" result="blurOut3"/><feBlend in="SourceGraphic" in2="blurOut3" mode="normal"/></filter></defs><g><rect style="stroke:#a80036;stroke-width:1.2" width="12" height="100.078" x="357" y="200.194" fill="#FFF" filter="url(#fqoijhe1a4k0w)"/><rect style="stroke:#a80036;stroke-width:1.2" width="12" height="34.959" x="357" y="440.109" fill="#FFF" filter="url(#fqoijhe1a4k0w)"/><line style="stroke:#a80036;stroke-width:1.2;stroke-dasharray:5,5" x1="43.2" x2="43.2" y1="45.956" y2="496.669"/><line style="stroke:#a80036;stroke-width:1.2;stroke-dasharray:5,5" x1="363" x2="363" y1="45.956" y2="496.669"/><rect style="stroke:#a80036;stroke-width:1.7999999999999998" width="63.6" height="36.356" x="9.6" y="3.6" fill="#FEFECE" filter="url(#fqoijhe1a4k0w)"/><text x="18" y="27.594" fill="#000" font-family="sans-serif" font-size="16.8" lengthAdjust="spacingAndGlyphs" textLength="46.8">Client</text><rect style="stroke:#a80036;stroke-width:1.7999999999999998" width="63.6" height="36.356" x="9.6" y="495.469" fill="#FEFECE" filter="url(#fqoijhe1a4k0w)"/><text x="18" y="519.463" fill="#000" font-family="sans-serif" font-size="16.8" lengthAdjust="spacingAndGlyphs" textLength="46.8">Client</text><rect style="stroke:#a80036;stroke-width:1.7999999999999998" width="136.8" height="36.356" x="292.2" y="3.6" fill="#FEFECE" filter="url(#fqoijhe1a4k0w)"/><text x="300.6" y="27.594" fill="#000" font-family="sans-serif" font-size="16.8" lengthAdjust="spacingAndGlyphs" textLength="120">Authentication</text><rect style="stroke:#a80036;stroke-width:1.7999999999999998" width="136.8" height="36.356" x="292.2" y="495.469" fill="#FEFECE" filter="url(#fqoijhe1a4k0w)"/><text x="300.6" y="519.463" fill="#000" font-family="sans-serif" font-size="16.8" lengthAdjust="spacingAndGlyphs" textLength="120">Authentication</text><rect style="stroke:#a80036;stroke-width:1.2" width="12" height="100.078" x="357" y="200.194" fill="#FFF" filter="url(#fqoijhe1a4k0w)"/><rect style="stroke:#a80036;stroke-width:1.2" width="12" height="34.959" x="357" y="440.109" fill="#FFF" filter="url(#fqoijhe1a4k0w)"/><polygon fill="#A80036" points="348.6 78.516 360.6 83.316 348.6 88.116 353.4 83.316" style="stroke:#a80036;stroke-width:1.2"/><line style="stroke:#a80036;stroke-width:1.2" x1="43.8" x2="355.8" y1="83.316" y2="83.316"/><text x="52.2" y="77.237" fill="#000" font-family="sans-serif" font-size="15.6" lengthAdjust="spacingAndGlyphs" textLength="290.4">1.0 SASL PLAIN (username/password)</text><path fill="#FBFB77" d="M283.2,98.9156 L283.2,128.9156 L438,128.9156 L438,110.9156 L426,98.9156 L283.2,98.9156" filter="url(#fqoijhe1a4k0w)" style="stroke:#a80036;stroke-width:1.2"/><path fill="#FBFB77" d="M426,98.9156 L426,110.9156 L438,110.9156 L426,98.9156" style="stroke:#a80036;stroke-width:1.2"/><text x="290.4" y="119.396" fill="#000" font-family="sans-serif" font-size="15.6" lengthAdjust="spacingAndGlyphs" textLength="129.6">verify credentials</text><polygon fill="#A80036" points="57 160.434 45 165.234 57 170.034 52.2 165.234" style="stroke:#a80036;stroke-width:1.2"/><line style="stroke:#a80036;stroke-width:1.2" x1="49.8" x2="361.8" y1="165.234" y2="165.234"/><text x="64.2" y="159.155" fill="#000" font-family="sans-serif" font-size="15.6" lengthAdjust="spacingAndGlyphs" textLength="96">1.1 SASL OK</text><polygon fill="#A80036" points="342.6 195.394 354.6 200.194 342.6 204.994 347.4 200.194" style="stroke:#a80036;stroke-width:1.2"/><line style="stroke:#a80036;stroke-width:1.2" x1="43.8" x2="349.8" y1="200.194" y2="200.194"/><text x="52.2" y="194.115" fill="#000" font-family="sans-serif" font-size="15.6" lengthAdjust="spacingAndGlyphs" textLength="67.2">2.0 open</text><path fill="#FBFB77" d="M265.2,215.7938 L265.2,263.7938 L456,263.7938 L456,227.7938 L444,215.7938 L265.2,215.7938" filter="url(#fqoijhe1a4k0w)" style="stroke:#a80036;stroke-width:1.2"/><path fill="#FBFB77" d="M444,215.7938 L444,227.7938 L456,227.7938 L444,215.7938" style="stroke:#a80036;stroke-width:1.2"/><text x="272.4" y="236.274" fill="#000" font-family="sans-serif" font-size="15.6" lengthAdjust="spacingAndGlyphs" textLength="165.6">determine authorities</text><text x="272.4" y="254.433" fill="#000" font-family="sans-serif" font-size="15.6" lengthAdjust="spacingAndGlyphs" textLength="97.2">create token</text><polygon fill="#A80036" points="57 295.472 45 300.272 57 305.072 52.2 300.272" style="stroke:#a80036;stroke-width:1.2"/><line style="stroke:#a80036;stroke-width:1.2" x1="49.8" x2="361.8" y1="300.272" y2="300.272"/><text x="64.2" y="294.193" fill="#000" font-family="sans-serif" font-size="15.6" lengthAdjust="spacingAndGlyphs" textLength="67.2">2.1 open</text><polygon fill="#A80036" points="348.6 330.431 360.6 335.231 348.6 340.031 353.4 335.231" style="stroke:#a80036;stroke-width:1.2"/><line style="stroke:#a80036;stroke-width:1.2" x1="43.8" x2="355.8" y1="335.231" y2="335.231"/><text x="52.2" y="329.152" fill="#000" font-family="sans-serif" font-size="15.6" lengthAdjust="spacingAndGlyphs" textLength="168">3.0 attach(REC, &quot;cbs&quot;)</text><polygon fill="#A80036" points="57 365.391 45 370.191 57 374.991 52.2 370.191" style="stroke:#a80036;stroke-width:1.2"/><line style="stroke:#a80036;stroke-width:1.2" x1="49.8" x2="361.8" y1="370.191" y2="370.191"/><text x="64.2" y="364.111" fill="#000" font-family="sans-serif" font-size="15.6" lengthAdjust="spacingAndGlyphs" textLength="78">3.1 attach</text><polygon fill="#A80036" points="57 400.35 45 405.15 57 409.95 52.2 405.15" style="stroke:#a80036;stroke-width:1.2"/><line style="stroke:#a80036;stroke-width:1.2" x1="49.8" x2="361.8" y1="405.15" y2="405.15"/><text x="64.2" y="399.071" fill="#000" font-family="sans-serif" font-size="15.6" lengthAdjust="spacingAndGlyphs" textLength="144">3.2 transfer(token)</text><polygon fill="#A80036" points="342.6 435.309 354.6 440.109 342.6 444.909 347.4 440.109" style="stroke:#a80036;stroke-width:1.2"/><line style="stroke:#a80036;stroke-width:1.2" x1="43.8" x2="349.8" y1="440.109" y2="440.109"/><text x="52.2" y="434.03" fill="#000" font-family="sans-serif" font-size="15.6" lengthAdjust="spacingAndGlyphs" textLength="68.4">4.0 close</text><polygon fill="#A80036" points="57 470.269 45 475.069 57 479.869 52.2 475.069" style="stroke:#a80036;stroke-width:1.2"/><line style="stroke:#a80036;stroke-width:1.2" x1="49.8" x2="361.8" y1="475.069" y2="475.069"/><text x="64.2" y="468.99" fill="#000" font-family="sans-serif" font-size="15.6" lengthAdjust="spacingAndGlyphs" textLength="68.4">4.1 close</text></g></svg>