<svg xmlns="http://www.w3.org/2000/svg" xmlns:xlink="http://www.w3.org/1999/xlink" width="662.4" height="327.6" contentScriptType="application/ecmascript" contentStyleType="text/css" style="width:662px;height:327px" preserveAspectRatio="none" version="1.1" viewBox="0 0 662 327" zoomAndPan="magnify"><defs><filter id="f1haa4yxqnzi8u" width="300%" height="300%" x="-1" y="-1"><feGaussianBlur result="blurOut" stdDeviation="2.4"/><feColorMatrix in="blurOut" result="blurOut2" type="matrix" values="0 0 0 0 0 0 0 0 0 0 0 0 0 0 0 0 0 0 .4 0"/><feOffset dx="4.8" dy="4.8" in="blurOut2" result="blurOut3"/><feBlend in="SourceGraphic" in2="blurOut3" mode="normal"/></filter></defs><g><rect style="stroke:#a80036;stroke-width:1.2" width="12" height="34.959" x="525" y="83.316" fill="#FFF" filter="url(#f1haa4yxqnzi8u)"/><rect style="stroke:#a80036;stroke-width:1.2" width="12" height="34.959" x="525" y="153.234" fill="#FFF" filter="url(#f1haa4yxqnzi8u)"/><rect style="stroke:#a80036;stroke-width:1.2" width="12" height="34.959" x="525" y="223.153" fill="#FFF" filter="url(#f1haa4yxqnzi8u)"/><line style="stroke:#a80036;stroke-width:1.2;stroke-dasharray:5,5" x1="43.2" x2="43.2" y1="45.956" y2="279.712"/><line style="stroke:#a80036;stroke-width:1.2;stroke-dasharray:5,5" x1="531" x2="531" y1="45.956" y2="279.712"/><rect style="stroke:#a80036;stroke-width:1.7999999999999998" width="63.6" height="36.356" x="9.6" y="3.6" fill="#FEFECE" filter="url(#f1haa4yxqnzi8u)"/><text x="18" y="27.594" fill="#000" font-family="sans-serif" font-size="16.8" lengthAdjust="spacingAndGlyphs" textLength="46.8">Client</text><rect style="stroke:#a80036;stroke-width:1.7999999999999998" width="63.6" height="36.356" x="9.6" y="278.512" fill="#FEFECE" filter="url(#f1haa4yxqnzi8u)"/><text x="18" y="302.507" fill="#000" font-family="sans-serif" font-size="16.8" lengthAdjust="spacingAndGlyphs" textLength="46.8">Client</text><rect style="stroke:#a80036;stroke-width:1.7999999999999998" width="242.4" height="36.356" x="407.4" y="3.6" fill="#FEFECE" filter="url(#f1haa4yxqnzi8u)"/><text x="415.8" y="27.594" fill="#000" font-family="sans-serif" font-size="16.8" lengthAdjust="spacingAndGlyphs" textLength="225.6">Device Registration Service</text><rect style="stroke:#a80036;stroke-width:1.7999999999999998" width="242.4" height="36.356" x="407.4" y="278.512" fill="#FEFECE" filter="url(#f1haa4yxqnzi8u)"/><text x="415.8" y="302.507" fill="#000" font-family="sans-serif" font-size="16.8" lengthAdjust="spacingAndGlyphs" textLength="225.6">Device Registration Service</text><rect style="stroke:#a80036;stroke-width:1.2" width="12" height="34.959" x="525" y="83.316" fill="#FFF" filter="url(#f1haa4yxqnzi8u)"/><rect style="stroke:#a80036;stroke-width:1.2" width="12" height="34.959" x="525" y="153.234" fill="#FFF" filter="url(#f1haa4yxqnzi8u)"/><rect style="stroke:#a80036;stroke-width:1.2" width="12" height="34.959" x="525" y="223.153" fill="#FFF" filter="url(#f1haa4yxqnzi8u)"/><polygon fill="#A80036" points="510.6 78.516 522.6 83.316 510.6 88.116 515.4 83.316" style="stroke:#a80036;stroke-width:1.2"/><line style="stroke:#a80036;stroke-width:1.2" x1="43.8" x2="517.8" y1="83.316" y2="83.316"/><text x="52.2" y="77.237" fill="#000" font-family="sans-serif" font-size="15.6" lengthAdjust="spacingAndGlyphs" textLength="67.2">1.1 open</text><polygon fill="#A80036" points="57 113.475 45 118.275 57 123.075 52.2 118.275" style="stroke:#a80036;stroke-width:1.2"/><line style="stroke:#a80036;stroke-width:1.2" x1="49.8" x2="529.8" y1="118.275" y2="118.275"/><text x="64.2" y="112.196" fill="#000" font-family="sans-serif" font-size="15.6" lengthAdjust="spacingAndGlyphs" textLength="67.2">1.2 open</text><polygon fill="#A80036" points="510.6 148.434 522.6 153.234 510.6 158.034 515.4 153.234" style="stroke:#a80036;stroke-width:1.2"/><line style="stroke:#a80036;stroke-width:1.2" x1="43.8" x2="517.8" y1="153.234" y2="153.234"/><text x="52.2" y="147.155" fill="#000" font-family="sans-serif" font-size="15.6" lengthAdjust="spacingAndGlyphs" textLength="357.6">2.1 attach(sender, &quot;registration/${tenant_id}&quot;)</text><polygon fill="#A80036" points="57 183.394 45 188.194 57 192.994 52.2 188.194" style="stroke:#a80036;stroke-width:1.2"/><line style="stroke:#a80036;stroke-width:1.2" x1="49.8" x2="529.8" y1="188.194" y2="188.194"/><text x="64.2" y="182.115" fill="#000" font-family="sans-serif" font-size="15.6" lengthAdjust="spacingAndGlyphs" textLength="366">2.2 attach(receiver, &quot;registration/${tenant_id}&quot;)</text><polygon fill="#A80036" points="510.6 218.353 522.6 223.153 510.6 227.953 515.4 223.153" style="stroke:#a80036;stroke-width:1.2"/><line style="stroke:#a80036;stroke-width:1.2" x1="43.8" x2="517.8" y1="223.153" y2="223.153"/><text x="52.2" y="217.074" fill="#000" font-family="sans-serif" font-size="15.6" lengthAdjust="spacingAndGlyphs" textLength="458.4">3.1 attach(receiver, &quot;registration/${tenant_id}/${reply-to}&quot;)</text><polygon fill="#A80036" points="57 253.313 45 258.113 57 262.913 52.2 258.113" style="stroke:#a80036;stroke-width:1.2"/><line style="stroke:#a80036;stroke-width:1.2" x1="49.8" x2="529.8" y1="258.113" y2="258.113"/><text x="64.2" y="252.033" fill="#000" font-family="sans-serif" font-size="15.6" lengthAdjust="spacingAndGlyphs" textLength="450">3.2 attach(sender, &quot;registration/${tenant_id}/${reply-to}&quot;)</text></g></svg>