<svg xmlns="http://www.w3.org/2000/svg" xmlns:xlink="http://www.w3.org/1999/xlink" width="510" height="318" contentScriptType="application/ecmascript" contentStyleType="text/css" style="width:510px;height:318px" preserveAspectRatio="none" version="1.1" viewBox="0 0 510 318" zoomAndPan="magnify"><defs><filter id="f1dsrh88hi7ryz" width="300%" height="300%" x="-1" y="-1"><feGaussianBlur result="blurOut" stdDeviation="2.4"/><feColorMatrix in="blurOut" result="blurOut2" type="matrix" values="0 0 0 0 0 0 0 0 0 0 0 0 0 0 0 0 0 0 .4 0"/><feOffset dx="4.8" dy="4.8" in="blurOut2" result="blurOut3"/><feBlend in="SourceGraphic" in2="blurOut3" mode="normal"/></filter></defs><g><rect style="stroke:#a80036;stroke-width:1.2" width="12" height="165.197" x="406.2" y="83.316" fill="#FFF" filter="url(#f1dsrh88hi7ryz)"/><line style="stroke:#a80036;stroke-width:1.2;stroke-dasharray:5,5" x1="43.2" x2="43.2" y1="45.956" y2="270.113"/><line style="stroke:#a80036;stroke-width:1.2;stroke-dasharray:5,5" x1="412.2" x2="412.2" y1="45.956" y2="270.113"/><rect style="stroke:#a80036;stroke-width:1.7999999999999998" width="63.6" height="36.356" x="9.6" y="3.6" fill="#FEFECE" filter="url(#f1dsrh88hi7ryz)"/><text x="18" y="27.594" fill="#000" font-family="sans-serif" font-size="16.8" lengthAdjust="spacingAndGlyphs" textLength="46.8">Client</text><rect style="stroke:#a80036;stroke-width:1.7999999999999998" width="63.6" height="36.356" x="9.6" y="268.913" fill="#FEFECE" filter="url(#f1dsrh88hi7ryz)"/><text x="18" y="292.907" fill="#000" font-family="sans-serif" font-size="16.8" lengthAdjust="spacingAndGlyphs" textLength="46.8">Client</text><rect style="stroke:#a80036;stroke-width:1.7999999999999998" width="175.2" height="36.356" x="322.2" y="3.6" fill="#FEFECE" filter="url(#f1dsrh88hi7ryz)"/><text x="330.6" y="27.594" fill="#000" font-family="sans-serif" font-size="16.8" lengthAdjust="spacingAndGlyphs" textLength="158.4">Credentials Service</text><rect style="stroke:#a80036;stroke-width:1.7999999999999998" width="175.2" height="36.356" x="322.2" y="268.913" fill="#FEFECE" filter="url(#f1dsrh88hi7ryz)"/><text x="330.6" y="292.907" fill="#000" font-family="sans-serif" font-size="16.8" lengthAdjust="spacingAndGlyphs" textLength="158.4">Credentials Service</text><rect style="stroke:#a80036;stroke-width:1.2" width="12" height="165.197" x="406.2" y="83.316" fill="#FFF" filter="url(#f1dsrh88hi7ryz)"/><polygon fill="#A80036" points="391.8 78.516 403.8 83.316 391.8 88.116 396.6 83.316" style="stroke:#a80036;stroke-width:1.2"/><line style="stroke:#a80036;stroke-width:1.2" x1="43.8" x2="399" y1="83.316" y2="83.316"/><text x="52.2" y="77.237" fill="#000" font-family="sans-serif" font-size="15.6" lengthAdjust="spacingAndGlyphs" textLength="339.6">transfer(subject: &quot;get&quot;, body: search criteria)</text><path fill="#FBFB77" d="M49.2,98.9156 L49.2,164.9156 L258,164.9156 L258,110.9156 L246,98.9156 L49.2,98.9156" filter="url(#f1dsrh88hi7ryz)" style="stroke:#a80036;stroke-width:1.2"/><path fill="#FBFB77" d="M246,98.9156 L246,110.9156 L258,110.9156 L246,98.9156" style="stroke:#a80036;stroke-width:1.2"/><text x="56.4" y="119.396" fill="#000" font-family="sans-serif" font-size="15.6" lengthAdjust="spacingAndGlyphs" textLength="183.6">search criteria is a JSON</text><text x="56.4" y="137.555" fill="#000" font-family="sans-serif" font-size="15.6" lengthAdjust="spacingAndGlyphs" textLength="152.4">object that contains</text><text x="56.4" y="155.715" fill="#000" font-family="sans-serif" font-size="15.6" lengthAdjust="spacingAndGlyphs" textLength="126">type and auth-id</text><path fill="#FBFB77" d="M327.6,182.1938 L327.6,212.1938 L492,212.1938 L492,194.1938 L480,182.1938 L327.6,182.1938" filter="url(#f1dsrh88hi7ryz)" style="stroke:#a80036;stroke-width:1.2"/><path fill="#FBFB77" d="M480,182.1938 L480,194.1938 L492,194.1938 L480,182.1938" style="stroke:#a80036;stroke-width:1.2"/><text x="334.8" y="202.674" fill="#000" font-family="sans-serif" font-size="15.6" lengthAdjust="spacingAndGlyphs" textLength="139.2">lookup credentials</text><polygon fill="#A80036" points="57 243.713 45 248.512 57 253.313 52.2 248.512" style="stroke:#a80036;stroke-width:1.2"/><line style="stroke:#a80036;stroke-width:1.2" x1="49.8" x2="411" y1="248.512" y2="248.512"/><text x="64.2" y="242.433" fill="#000" font-family="sans-serif" font-size="15.6" lengthAdjust="spacingAndGlyphs" textLength="310.8">transfer(status: &quot;200&quot;, body: credentials)</text></g></svg>