<svg xmlns="http://www.w3.org/2000/svg" xmlns:xlink="http://www.w3.org/1999/xlink" width="625.2" height="327.6" contentScriptType="application/ecmascript" contentStyleType="text/css" style="width:625px;height:327px" preserveAspectRatio="none" version="1.1" viewBox="0 0 625 327" zoomAndPan="magnify"><defs><filter id="fxmll93e7nmsu" width="300%" height="300%" x="-1" y="-1"><feGaussianBlur result="blurOut" stdDeviation="2.4"/><feColorMatrix in="blurOut" result="blurOut2" type="matrix" values="0 0 0 0 0 0 0 0 0 0 0 0 0 0 0 0 0 0 .4 0"/><feOffset dx="4.8" dy="4.8" in="blurOut2" result="blurOut3"/><feBlend in="SourceGraphic" in2="blurOut3" mode="normal"/></filter></defs><g><rect style="stroke:#a80036;stroke-width:1.2" width="12" height="34.959" x="521.4" y="83.316" fill="#FFF" filter="url(#fxmll93e7nmsu)"/><rect style="stroke:#a80036;stroke-width:1.2" width="12" height="34.959" x="521.4" y="153.234" fill="#FFF" filter="url(#fxmll93e7nmsu)"/><rect style="stroke:#a80036;stroke-width:1.2" width="12" height="34.959" x="521.4" y="223.153" fill="#FFF" filter="url(#fxmll93e7nmsu)"/><line style="stroke:#a80036;stroke-width:1.2;stroke-dasharray:5,5" x1="43.2" x2="43.2" y1="45.956" y2="279.712"/><line style="stroke:#a80036;stroke-width:1.2;stroke-dasharray:5,5" x1="527.4" x2="527.4" y1="45.956" y2="279.712"/><rect style="stroke:#a80036;stroke-width:1.7999999999999998" width="63.6" height="36.356" x="9.6" y="3.6" fill="#FEFECE" filter="url(#fxmll93e7nmsu)"/><text x="18" y="27.594" fill="#000" font-family="sans-serif" font-size="16.8" lengthAdjust="spacingAndGlyphs" textLength="46.8">Client</text><rect style="stroke:#a80036;stroke-width:1.7999999999999998" width="63.6" height="36.356" x="9.6" y="278.512" fill="#FEFECE" filter="url(#fxmll93e7nmsu)"/><text x="18" y="302.507" fill="#000" font-family="sans-serif" font-size="16.8" lengthAdjust="spacingAndGlyphs" textLength="46.8">Client</text><rect style="stroke:#a80036;stroke-width:1.7999999999999998" width="175.2" height="36.356" x="437.4" y="3.6" fill="#FEFECE" filter="url(#fxmll93e7nmsu)"/><text x="445.8" y="27.594" fill="#000" font-family="sans-serif" font-size="16.8" lengthAdjust="spacingAndGlyphs" textLength="158.4">Credentials Service</text><rect style="stroke:#a80036;stroke-width:1.7999999999999998" width="175.2" height="36.356" x="437.4" y="278.512" fill="#FEFECE" filter="url(#fxmll93e7nmsu)"/><text x="445.8" y="302.507" fill="#000" font-family="sans-serif" font-size="16.8" lengthAdjust="spacingAndGlyphs" textLength="158.4">Credentials Service</text><rect style="stroke:#a80036;stroke-width:1.2" width="12" height="34.959" x="521.4" y="83.316" fill="#FFF" filter="url(#fxmll93e7nmsu)"/><rect style="stroke:#a80036;stroke-width:1.2" width="12" height="34.959" x="521.4" y="153.234" fill="#FFF" filter="url(#fxmll93e7nmsu)"/><rect style="stroke:#a80036;stroke-width:1.2" width="12" height="34.959" x="521.4" y="223.153" fill="#FFF" filter="url(#fxmll93e7nmsu)"/><polygon fill="#A80036" points="507 78.516 519 83.316 507 88.116 511.8 83.316" style="stroke:#a80036;stroke-width:1.2"/><line style="stroke:#a80036;stroke-width:1.2" x1="43.8" x2="514.2" y1="83.316" y2="83.316"/><text x="52.2" y="77.237" fill="#000" font-family="sans-serif" font-size="15.6" lengthAdjust="spacingAndGlyphs" textLength="67.2">1.1 open</text><polygon fill="#A80036" points="57 113.475 45 118.275 57 123.075 52.2 118.275" style="stroke:#a80036;stroke-width:1.2"/><line style="stroke:#a80036;stroke-width:1.2" x1="49.8" x2="526.2" y1="118.275" y2="118.275"/><text x="64.2" y="112.196" fill="#000" font-family="sans-serif" font-size="15.6" lengthAdjust="spacingAndGlyphs" textLength="67.2">1.2 open</text><polygon fill="#A80036" points="507 148.434 519 153.234 507 158.034 511.8 153.234" style="stroke:#a80036;stroke-width:1.2"/><line style="stroke:#a80036;stroke-width:1.2" x1="43.8" x2="514.2" y1="153.234" y2="153.234"/><text x="52.2" y="147.155" fill="#000" font-family="sans-serif" font-size="15.6" lengthAdjust="spacingAndGlyphs" textLength="354">2.1 attach(sender, &quot;credentials/${tenant_id}&quot;)</text><polygon fill="#A80036" points="57 183.394 45 188.194 57 192.994 52.2 188.194" style="stroke:#a80036;stroke-width:1.2"/><line style="stroke:#a80036;stroke-width:1.2" x1="49.8" x2="526.2" y1="188.194" y2="188.194"/><text x="64.2" y="182.115" fill="#000" font-family="sans-serif" font-size="15.6" lengthAdjust="spacingAndGlyphs" textLength="362.4">2.2 attach(receiver, &quot;credentials/${tenant_id}&quot;)</text><polygon fill="#A80036" points="507 218.353 519 223.153 507 227.953 511.8 223.153" style="stroke:#a80036;stroke-width:1.2"/><line style="stroke:#a80036;stroke-width:1.2" x1="43.8" x2="514.2" y1="223.153" y2="223.153"/><text x="52.2" y="217.074" fill="#000" font-family="sans-serif" font-size="15.6" lengthAdjust="spacingAndGlyphs" textLength="454.8">3.1 attach(receiver, &quot;credentials/${tenant_id}/${reply-to}&quot;)</text><polygon fill="#A80036" points="57 253.313 45 258.113 57 262.913 52.2 258.113" style="stroke:#a80036;stroke-width:1.2"/><line style="stroke:#a80036;stroke-width:1.2" x1="49.8" x2="526.2" y1="258.113" y2="258.113"/><text x="64.2" y="252.033" fill="#000" font-family="sans-serif" font-size="15.6" lengthAdjust="spacingAndGlyphs" textLength="446.4">3.2 attach(sender, &quot;credentials/${tenant_id}/${reply-to}&quot;)</text></g></svg>