<svg xmlns="http://www.w3.org/2000/svg" xmlns:xlink="http://www.w3.org/1999/xlink" width="717.6" height="234" contentScriptType="application/ecmascript" contentStyleType="text/css" style="width:717px;height:234px" preserveAspectRatio="none" version="1.1" viewBox="0 0 717 234" zoomAndPan="magnify"><defs><filter id="f6egohjifnt9s" width="300%" height="300%" x="-1" y="-1"><feGaussianBlur result="blurOut" stdDeviation="2.4"/><feColorMatrix in="blurOut" result="blurOut2" type="matrix" values="0 0 0 0 0 0 0 0 0 0 0 0 0 0 0 0 0 0 .4 0"/><feOffset dx="4.8" dy="4.8" in="blurOut2" result="blurOut3"/><feBlend in="SourceGraphic" in2="blurOut3" mode="normal"/></filter></defs><g><rect style="stroke:#a80036;stroke-width:1.2" width="12" height="81.919" x="630.6" y="83.316" fill="#FFF" filter="url(#f6egohjifnt9s)"/><line style="stroke:#a80036;stroke-width:1.2;stroke-dasharray:5,5" x1="43.2" x2="43.2" y1="45.956" y2="186.834"/><line style="stroke:#a80036;stroke-width:1.2;stroke-dasharray:5,5" x1="636" x2="636" y1="45.956" y2="186.834"/><rect style="stroke:#a80036;stroke-width:1.7999999999999998" width="63.6" height="36.356" x="9.6" y="3.6" fill="#FEFECE" filter="url(#f6egohjifnt9s)"/><text x="18" y="27.594" fill="#000" font-family="sans-serif" font-size="16.8" lengthAdjust="spacingAndGlyphs" textLength="46.8">Client</text><rect style="stroke:#a80036;stroke-width:1.7999999999999998" width="63.6" height="36.356" x="9.6" y="185.634" fill="#FEFECE" filter="url(#f6egohjifnt9s)"/><text x="18" y="209.629" fill="#000" font-family="sans-serif" font-size="16.8" lengthAdjust="spacingAndGlyphs" textLength="46.8">Client</text><rect style="stroke:#a80036;stroke-width:1.7999999999999998" width="140.4" height="36.356" x="564" y="3.6" fill="#FEFECE" filter="url(#f6egohjifnt9s)"/><text x="572.4" y="27.594" fill="#000" font-family="sans-serif" font-size="16.8" lengthAdjust="spacingAndGlyphs" textLength="123.6">Tenant Service</text><rect style="stroke:#a80036;stroke-width:1.7999999999999998" width="140.4" height="36.356" x="564" y="185.634" fill="#FEFECE" filter="url(#f6egohjifnt9s)"/><text x="572.4" y="209.629" fill="#000" font-family="sans-serif" font-size="16.8" lengthAdjust="spacingAndGlyphs" textLength="123.6">Tenant Service</text><rect style="stroke:#a80036;stroke-width:1.2" width="12" height="81.919" x="630.6" y="83.316" fill="#FFF" filter="url(#f6egohjifnt9s)"/><polygon fill="#A80036" points="616.2 78.516 628.2 83.316 616.2 88.116 621 83.316" style="stroke:#a80036;stroke-width:1.2"/><line style="stroke:#a80036;stroke-width:1.2" x1="43.8" x2="623.4" y1="83.316" y2="83.316"/><text x="52.2" y="77.237" fill="#000" font-family="sans-serif" font-size="15.6" lengthAdjust="spacingAndGlyphs" textLength="339.6">transfer(subject: &quot;get&quot;, body: search criteria)</text><path fill="#FBFB77" d="M566.4,98.9156 L566.4,128.9156 L702,128.9156 L702,110.9156 L690,98.9156 L566.4,98.9156" filter="url(#f6egohjifnt9s)" style="stroke:#a80036;stroke-width:1.2"/><path fill="#FBFB77" d="M690,98.9156 L690,110.9156 L702,110.9156 L690,98.9156" style="stroke:#a80036;stroke-width:1.2"/><text x="573.6" y="119.396" fill="#000" font-family="sans-serif" font-size="15.6" lengthAdjust="spacingAndGlyphs" textLength="110.4">look up tenant</text><polygon fill="#A80036" points="57 160.434 45 165.234 57 170.034 52.2 165.234" style="stroke:#a80036;stroke-width:1.2"/><line style="stroke:#a80036;stroke-width:1.2" x1="49.8" x2="635.4" y1="165.234" y2="165.234"/><text x="64.2" y="159.155" fill="#000" font-family="sans-serif" font-size="15.6" lengthAdjust="spacingAndGlyphs" textLength="558">transfer(status: &quot;200&quot;, content-type: &quot;application/json&quot;, body: tenant info)</text></g></svg>