<svg xmlns="http://www.w3.org/2000/svg" xmlns:xlink="http://www.w3.org/1999/xlink" width="921.6" height="258" contentScriptType="application/ecmascript" contentStyleType="text/css" style="width:921px;height:258px" preserveAspectRatio="none" version="1.1" viewBox="0 0 921 258" zoomAndPan="magnify"><defs><filter id="f92uui3yoh7h1" width="300%" height="300%" x="-1" y="-1"><feGaussianBlur result="blurOut" stdDeviation="2.4"/><feColorMatrix in="blurOut" result="blurOut2" type="matrix" values="0 0 0 0 0 0 0 0 0 0 0 0 0 0 0 0 0 0 .4 0"/><feOffset dx="4.8" dy="4.8" in="blurOut2" result="blurOut3"/><feBlend in="SourceGraphic" in2="blurOut3" mode="normal"/></filter></defs><g><rect style="stroke:#a80036;stroke-width:1.2" width="12" height="115.678" x="414.6" y="83.316" fill="#FFF" filter="url(#f92uui3yoh7h1)"/><rect style="stroke:#a80036;stroke-width:1.2" width="12" height="34.959" x="772.2" y="118.275" fill="#FFF" filter="url(#f92uui3yoh7h1)"/><line style="stroke:#a80036;stroke-width:1.2;stroke-dasharray:5,5" x1="48" x2="48" y1="45.956" y2="209.794"/><line style="stroke:#a80036;stroke-width:1.2;stroke-dasharray:5,5" x1="420" x2="420" y1="45.956" y2="209.794"/><line style="stroke:#a80036;stroke-width:1.2;stroke-dasharray:5,5" x1="777.6" x2="777.6" y1="45.956" y2="209.794"/><rect style="stroke:#a80036;stroke-width:1.7999999999999998" width="73.2" height="36.356" x="9.6" y="3.6" fill="#FEFECE" filter="url(#f92uui3yoh7h1)"/><text x="18" y="27.594" fill="#000" font-family="sans-serif" font-size="16.8" lengthAdjust="spacingAndGlyphs" textLength="56.4">Device</text><rect style="stroke:#a80036;stroke-width:1.7999999999999998" width="73.2" height="36.356" x="9.6" y="208.594" fill="#FEFECE" filter="url(#f92uui3yoh7h1)"/><text x="18" y="232.588" fill="#000" font-family="sans-serif" font-size="16.8" lengthAdjust="spacingAndGlyphs" textLength="56.4">Device</text><rect style="stroke:#a80036;stroke-width:1.7999999999999998" width="135.6" height="36.356" x="350.4" y="3.6" fill="#FEFECE" filter="url(#f92uui3yoh7h1)"/><text x="358.8" y="27.594" fill="#000" font-family="sans-serif" font-size="16.8" lengthAdjust="spacingAndGlyphs" textLength="118.8">MQTT Adapter</text><rect style="stroke:#a80036;stroke-width:1.7999999999999998" width="135.6" height="36.356" x="350.4" y="208.594" fill="#FEFECE" filter="url(#f92uui3yoh7h1)"/><text x="358.8" y="232.588" fill="#000" font-family="sans-serif" font-size="16.8" lengthAdjust="spacingAndGlyphs" textLength="118.8">MQTT Adapter</text><rect style="stroke:#a80036;stroke-width:1.7999999999999998" width="265.2" height="36.356" x="643.2" y="3.6" fill="#FEFECE" filter="url(#f92uui3yoh7h1)"/><text x="651.6" y="27.594" fill="#000" font-family="sans-serif" font-size="16.8" lengthAdjust="spacingAndGlyphs" textLength="248.4">AMQP 1.0 Messaging Network</text><rect style="stroke:#a80036;stroke-width:1.7999999999999998" width="265.2" height="36.356" x="643.2" y="208.594" fill="#FEFECE" filter="url(#f92uui3yoh7h1)"/><text x="651.6" y="232.588" fill="#000" font-family="sans-serif" font-size="16.8" lengthAdjust="spacingAndGlyphs" textLength="248.4">AMQP 1.0 Messaging Network</text><rect style="stroke:#a80036;stroke-width:1.2" width="12" height="115.678" x="414.6" y="83.316" fill="#FFF" filter="url(#f92uui3yoh7h1)"/><rect style="stroke:#a80036;stroke-width:1.2" width="12" height="34.959" x="772.2" y="118.275" fill="#FFF" filter="url(#f92uui3yoh7h1)"/><polygon fill="#A80036" points="400.2 78.516 412.2 83.316 400.2 88.116 405 83.316" style="stroke:#a80036;stroke-width:1.2"/><line style="stroke:#a80036;stroke-width:1.2" x1="48.6" x2="407.4" y1="83.316" y2="83.316"/><text x="57" y="77.237" fill="#000" font-family="sans-serif" font-size="15.6" lengthAdjust="spacingAndGlyphs" textLength="343.2">1.0 PUBLISH(&quot;e/TENANT/4711&quot;, qos=1, data)</text><polygon fill="#A80036" points="757.8 113.475 769.8 118.275 757.8 123.075 762.6 118.275" style="stroke:#a80036;stroke-width:1.2"/><line style="stroke:#a80036;stroke-width:1.2" x1="426.6" x2="765" y1="118.275" y2="118.275"/><text x="435" y="112.196" fill="#000" font-family="sans-serif" font-size="15.6" lengthAdjust="spacingAndGlyphs" textLength="322.8">1.1 transfer(device_id: &quot;4711&quot;, body: data)</text><polygon fill="#A80036" points="439.8 148.434 427.8 153.234 439.8 158.034 435 153.234" style="stroke:#a80036;stroke-width:1.2"/><line style="stroke:#a80036;stroke-width:1.2" x1="432.6" x2="777" y1="153.234" y2="153.234"/><text x="447" y="147.155" fill="#000" font-family="sans-serif" font-size="15.6" lengthAdjust="spacingAndGlyphs" textLength="254.4">1.2 disposition(state: &quot;accepted&quot;)</text><polygon fill="#A80036" points="61.8 183.394 49.8 188.194 61.8 192.994 57 188.194" style="stroke:#a80036;stroke-width:1.2"/><line style="stroke:#a80036;stroke-width:1.2" x1="54.6" x2="413.4" y1="188.194" y2="188.194"/><text x="69" y="182.115" fill="#000" font-family="sans-serif" font-size="15.6" lengthAdjust="spacingAndGlyphs" textLength="92.4">1.3 PUBACK</text></g></svg>