<svg xmlns="http://www.w3.org/2000/svg" xmlns:xlink="http://www.w3.org/1999/xlink" width="1400.4" height="427.2" contentScriptType="application/ecmascript" contentStyleType="text/css" style="width:1400px;height:427px" preserveAspectRatio="none" version="1.1" viewBox="0 0 1400 427" zoomAndPan="magnify"><defs><filter id="fv63cmfv2nt78" width="300%" height="300%" x="-1" y="-1"><feGaussianBlur result="blurOut" stdDeviation="2.4"/><feColorMatrix in="blurOut" result="blurOut2" type="matrix" values="0 0 0 0 0 0 0 0 0 0 0 0 0 0 0 0 0 0 .4 0"/><feOffset dx="4.8" dy="4.8" in="blurOut2" result="blurOut3"/><feBlend in="SourceGraphic" in2="blurOut3" mode="normal"/></filter></defs><g><rect style="stroke:#a80036;stroke-width:1.2" width="12" height="209.756" x="622.2" y="148.434" fill="#FFF" filter="url(#fv63cmfv2nt78)"/><rect style="stroke:#a80036;stroke-width:1.2" width="12" height="174.797" x="1330.2" y="183.394" fill="#FFF" filter="url(#fv63cmfv2nt78)"/><line style="stroke:#a80036;stroke-width:1.2;stroke-dasharray:5,5" x1="148.8" x2="148.8" y1="45.956" y2="379.791"/><line style="stroke:#a80036;stroke-width:1.2;stroke-dasharray:5,5" x1="627.6" x2="627.6" y1="45.956" y2="379.791"/><line style="stroke:#a80036;stroke-width:1.2;stroke-dasharray:5,5" x1="1335.6" x2="1335.6" y1="45.956" y2="379.791"/><rect style="stroke:#a80036;stroke-width:1.7999999999999998" width="73.2" height="36.356" x="110.4" y="3.6" fill="#FEFECE" filter="url(#fv63cmfv2nt78)"/><text x="118.8" y="27.594" fill="#000" font-family="sans-serif" font-size="16.8" lengthAdjust="spacingAndGlyphs" textLength="56.4">Device</text><rect style="stroke:#a80036;stroke-width:1.7999999999999998" width="73.2" height="36.356" x="110.4" y="378.591" fill="#FEFECE" filter="url(#fv63cmfv2nt78)"/><text x="118.8" y="402.585" fill="#000" font-family="sans-serif" font-size="16.8" lengthAdjust="spacingAndGlyphs" textLength="56.4">Device</text><rect style="stroke:#a80036;stroke-width:1.7999999999999998" width="135.6" height="36.356" x="558" y="3.6" fill="#FEFECE" filter="url(#fv63cmfv2nt78)"/><text x="566.4" y="27.594" fill="#000" font-family="sans-serif" font-size="16.8" lengthAdjust="spacingAndGlyphs" textLength="118.8">MQTT Adapter</text><rect style="stroke:#a80036;stroke-width:1.7999999999999998" width="135.6" height="36.356" x="558" y="378.591" fill="#FEFECE" filter="url(#fv63cmfv2nt78)"/><text x="566.4" y="402.585" fill="#000" font-family="sans-serif" font-size="16.8" lengthAdjust="spacingAndGlyphs" textLength="118.8">MQTT Adapter</text><rect style="stroke:#a80036;stroke-width:1.7999999999999998" width="106.8" height="36.356" x="1280.4" y="3.6" fill="#FEFECE" filter="url(#fv63cmfv2nt78)"/><text x="1288.8" y="27.594" fill="#000" font-family="sans-serif" font-size="16.8" lengthAdjust="spacingAndGlyphs" textLength="90">Application</text><rect style="stroke:#a80036;stroke-width:1.7999999999999998" width="106.8" height="36.356" x="1280.4" y="378.591" fill="#FEFECE" filter="url(#fv63cmfv2nt78)"/><text x="1288.8" y="402.585" fill="#000" font-family="sans-serif" font-size="16.8" lengthAdjust="spacingAndGlyphs" textLength="90">Application</text><rect style="stroke:#a80036;stroke-width:1.2" width="12" height="209.756" x="622.2" y="148.434" fill="#FFF" filter="url(#fv63cmfv2nt78)"/><rect style="stroke:#a80036;stroke-width:1.2" width="12" height="174.797" x="1330.2" y="183.394" fill="#FFF" filter="url(#fv63cmfv2nt78)"/><path fill="#FBFB77" d="M9.6,63.9563 L9.6,111.9563 L285.6,111.9563 L285.6,75.9563 L273.6,63.9563 L9.6,63.9563" filter="url(#fv63cmfv2nt78)" style="stroke:#a80036;stroke-width:1.2"/><path fill="#FBFB77" d="M273.6,63.9563 L273.6,75.9563 L285.6,75.9563 L273.6,63.9563" style="stroke:#a80036;stroke-width:1.2"/><text x="16.8" y="84.436" fill="#000" font-family="sans-serif" font-size="15.6" lengthAdjust="spacingAndGlyphs" textLength="217.2">The device is connected and</text><text x="16.8" y="102.596" fill="#000" font-family="sans-serif" font-size="15.6" lengthAdjust="spacingAndGlyphs" textLength="250.8">authenticated with TENANT/4711</text><polygon fill="#A80036" points="607.8 143.634 619.8 148.434 607.8 153.234 612.6 148.434" style="stroke:#a80036;stroke-width:1.2"/><line style="stroke:#a80036;stroke-width:1.2" x1="149.4" x2="615" y1="148.434" y2="148.434"/><text x="157.8" y="142.355" fill="#000" font-family="sans-serif" font-size="15.6" lengthAdjust="spacingAndGlyphs" textLength="267.6">1. SUBSCRIBE(&quot;command///req/#&quot;)</text><polygon fill="#A80036" points="1315.8 178.594 1327.8 183.394 1315.8 188.194 1320.6 183.394" style="stroke:#a80036;stroke-width:1.2"/><line style="stroke:#a80036;stroke-width:1.2" x1="634.2" x2="1323" y1="183.394" y2="183.394"/><text x="642.6" y="177.315" fill="#000" font-family="sans-serif" font-size="15.6" lengthAdjust="spacingAndGlyphs" textLength="334.8">2. transfer(&quot;event/TENANT&quot;,&quot;4711&quot;,&quot;ttd=-1&quot;)</text><polygon fill="#A80036" points="647.4 213.553 635.4 218.353 647.4 223.153 642.6 218.353" style="stroke:#a80036;stroke-width:1.2"/><line style="stroke:#a80036;stroke-width:1.2" x1="640.2" x2="1329" y1="218.353" y2="218.353"/><text x="654.6" y="212.274" fill="#000" font-family="sans-serif" font-size="15.6" lengthAdjust="spacingAndGlyphs" textLength="380.4">3. transfer(&quot;command/TENANT/4711&quot;,&quot;light&quot;,&quot;ON&quot;)</text><polygon fill="#A80036" points="162.6 248.512 150.6 253.313 162.6 258.113 157.8 253.313" style="stroke:#a80036;stroke-width:1.2"/><line style="stroke:#a80036;stroke-width:1.2" x1="155.4" x2="621" y1="253.313" y2="253.313"/><text x="169.8" y="247.233" fill="#000" font-family="sans-serif" font-size="15.6" lengthAdjust="spacingAndGlyphs" textLength="382.8">4. PUBLISH(&quot;command///req/${reqId}/light&quot;, &quot;ON&quot;)</text><polygon fill="#A80036" points="1315.8 283.472 1327.8 288.272 1315.8 293.072 1320.6 288.272" style="stroke:#a80036;stroke-width:1.2"/><line style="stroke:#a80036;stroke-width:1.2" x1="634.2" x2="1323" y1="288.272" y2="288.272"/><text x="642.6" y="282.193" fill="#000" font-family="sans-serif" font-size="15.6" lengthAdjust="spacingAndGlyphs" textLength="176.4">disposition(&quot;accepted&quot;)</text><polygon fill="#A80036" points="607.8 318.431 619.8 323.231 607.8 328.031 612.6 323.231" style="stroke:#a80036;stroke-width:1.2"/><line style="stroke:#a80036;stroke-width:1.2" x1="149.4" x2="615" y1="323.231" y2="323.231"/><text x="157.8" y="317.152" fill="#000" font-family="sans-serif" font-size="15.6" lengthAdjust="spacingAndGlyphs" textLength="444">5. PUBLISH(&quot;command///res/${reqId}/200&quot;, &quot;lumen=100&quot;)</text><polygon fill="#A80036" points="1321.8 353.391 1333.8 358.191 1321.8 362.991 1326.6 358.191" style="stroke:#a80036;stroke-width:1.2"/><line style="stroke:#a80036;stroke-width:1.2" x1="628.2" x2="1329" y1="358.191" y2="358.191"/><text x="636.6" y="352.111" fill="#000" font-family="sans-serif" font-size="15.6" lengthAdjust="spacingAndGlyphs" textLength="667.2">6. transfer(&quot;command_response/TENANT/4711/${replyId}&quot;,&quot;status=200&quot;,&quot;lumen=100&quot;)</text></g></svg>