<svg xmlns="http://www.w3.org/2000/svg" xmlns:xlink="http://www.w3.org/1999/xlink" width="966" height="357.6" contentScriptType="application/ecmascript" contentStyleType="text/css" style="width:966px;height:357px" preserveAspectRatio="none" version="1.1" viewBox="0 0 966 357" zoomAndPan="magnify"><defs><filter id="f19t5uq8ddfn8" width="300%" height="300%" x="-1" y="-1"><feGaussianBlur result="blurOut" stdDeviation="2.4"/><feColorMatrix in="blurOut" result="blurOut2" type="matrix" values="0 0 0 0 0 0 0 0 0 0 0 0 0 0 0 0 0 0 .4 0"/><feOffset dx="4.8" dy="4.8" in="blurOut2" result="blurOut3"/><feBlend in="SourceGraphic" in2="blurOut3" mode="normal"/></filter></defs><g><rect style="stroke:#a80036;stroke-width:1.2" width="12" height="139.838" x="474.6" y="148.434" fill="#FFF" filter="url(#f19t5uq8ddfn8)"/><rect style="stroke:#a80036;stroke-width:1.2" width="12" height="104.878" x="895.8" y="183.394" fill="#FFF" filter="url(#f19t5uq8ddfn8)"/><line style="stroke:#a80036;stroke-width:1.2;stroke-dasharray:5,5" x1="148.8" x2="148.8" y1="45.956" y2="309.872"/><line style="stroke:#a80036;stroke-width:1.2;stroke-dasharray:5,5" x1="480" x2="480" y1="45.956" y2="309.872"/><line style="stroke:#a80036;stroke-width:1.2;stroke-dasharray:5,5" x1="901.2" x2="901.2" y1="45.956" y2="309.872"/><rect style="stroke:#a80036;stroke-width:1.7999999999999998" width="73.2" height="36.356" x="110.4" y="3.6" fill="#FEFECE" filter="url(#f19t5uq8ddfn8)"/><text x="118.8" y="27.594" fill="#000" font-family="sans-serif" font-size="16.8" lengthAdjust="spacingAndGlyphs" textLength="56.4">Device</text><rect style="stroke:#a80036;stroke-width:1.7999999999999998" width="73.2" height="36.356" x="110.4" y="308.672" fill="#FEFECE" filter="url(#f19t5uq8ddfn8)"/><text x="118.8" y="332.666" fill="#000" font-family="sans-serif" font-size="16.8" lengthAdjust="spacingAndGlyphs" textLength="56.4">Device</text><rect style="stroke:#a80036;stroke-width:1.7999999999999998" width="135.6" height="36.356" x="410.4" y="3.6" fill="#FEFECE" filter="url(#f19t5uq8ddfn8)"/><text x="418.8" y="27.594" fill="#000" font-family="sans-serif" font-size="16.8" lengthAdjust="spacingAndGlyphs" textLength="118.8">MQTT Adapter</text><rect style="stroke:#a80036;stroke-width:1.7999999999999998" width="135.6" height="36.356" x="410.4" y="308.672" fill="#FEFECE" filter="url(#f19t5uq8ddfn8)"/><text x="418.8" y="332.666" fill="#000" font-family="sans-serif" font-size="16.8" lengthAdjust="spacingAndGlyphs" textLength="118.8">MQTT Adapter</text><rect style="stroke:#a80036;stroke-width:1.7999999999999998" width="106.8" height="36.356" x="846" y="3.6" fill="#FEFECE" filter="url(#f19t5uq8ddfn8)"/><text x="854.4" y="27.594" fill="#000" font-family="sans-serif" font-size="16.8" lengthAdjust="spacingAndGlyphs" textLength="90">Application</text><rect style="stroke:#a80036;stroke-width:1.7999999999999998" width="106.8" height="36.356" x="846" y="308.672" fill="#FEFECE" filter="url(#f19t5uq8ddfn8)"/><text x="854.4" y="332.666" fill="#000" font-family="sans-serif" font-size="16.8" lengthAdjust="spacingAndGlyphs" textLength="90">Application</text><rect style="stroke:#a80036;stroke-width:1.2" width="12" height="139.838" x="474.6" y="148.434" fill="#FFF" filter="url(#f19t5uq8ddfn8)"/><rect style="stroke:#a80036;stroke-width:1.2" width="12" height="104.878" x="895.8" y="183.394" fill="#FFF" filter="url(#f19t5uq8ddfn8)"/><path fill="#FBFB77" d="M9.6,63.9563 L9.6,111.9563 L285.6,111.9563 L285.6,75.9563 L273.6,63.9563 L9.6,63.9563" filter="url(#f19t5uq8ddfn8)" style="stroke:#a80036;stroke-width:1.2"/><path fill="#FBFB77" d="M273.6,63.9563 L273.6,75.9563 L285.6,75.9563 L273.6,63.9563" style="stroke:#a80036;stroke-width:1.2"/><text x="16.8" y="84.436" fill="#000" font-family="sans-serif" font-size="15.6" lengthAdjust="spacingAndGlyphs" textLength="217.2">The device is connected and</text><text x="16.8" y="102.596" fill="#000" font-family="sans-serif" font-size="15.6" lengthAdjust="spacingAndGlyphs" textLength="250.8">authenticated with TENANT/4711</text><polygon fill="#A80036" points="460.2 143.634 472.2 148.434 460.2 153.234 465 148.434" style="stroke:#a80036;stroke-width:1.2"/><line style="stroke:#a80036;stroke-width:1.2" x1="149.4" x2="467.4" y1="148.434" y2="148.434"/><text x="157.8" y="142.355" fill="#000" font-family="sans-serif" font-size="15.6" lengthAdjust="spacingAndGlyphs" textLength="267.6">1. SUBSCRIBE(&quot;command///req/#&quot;)</text><polygon fill="#A80036" points="881.4 178.594 893.4 183.394 881.4 188.194 886.2 183.394" style="stroke:#a80036;stroke-width:1.2"/><line style="stroke:#a80036;stroke-width:1.2" x1="486.6" x2="888.6" y1="183.394" y2="183.394"/><text x="495" y="177.315" fill="#000" font-family="sans-serif" font-size="15.6" lengthAdjust="spacingAndGlyphs" textLength="334.8">2. transfer(&quot;event/TENANT&quot;,&quot;4711&quot;,&quot;ttd=-1&quot;)</text><polygon fill="#A80036" points="499.8 213.553 487.8 218.353 499.8 223.153 495 218.353" style="stroke:#a80036;stroke-width:1.2"/><line style="stroke:#a80036;stroke-width:1.2" x1="492.6" x2="894.6" y1="218.353" y2="218.353"/><text x="507" y="212.274" fill="#000" font-family="sans-serif" font-size="15.6" lengthAdjust="spacingAndGlyphs" textLength="380.4">3. transfer(&quot;command/TENANT/4711&quot;,&quot;light&quot;,&quot;ON&quot;)</text><polygon fill="#A80036" points="162.6 248.512 150.6 253.313 162.6 258.113 157.8 253.313" style="stroke:#a80036;stroke-width:1.2"/><line style="stroke:#a80036;stroke-width:1.2" x1="155.4" x2="473.4" y1="253.313" y2="253.313"/><text x="169.8" y="247.233" fill="#000" font-family="sans-serif" font-size="15.6" lengthAdjust="spacingAndGlyphs" textLength="176.4">4. PUBLISH(&quot;command</text><text x="346.2" y="247.233" fill="#000" font-family="sans-serif" font-size="15.6" font-style="italic" lengthAdjust="spacingAndGlyphs" textLength="30">/req</text><text x="376.2" y="247.233" fill="#000" font-family="sans-serif" font-size="15.6" lengthAdjust="spacingAndGlyphs" textLength="90">light&quot;, &quot;ON&quot;)</text><polygon fill="#A80036" points="887.4 283.472 899.4 288.272 887.4 293.072 892.2 288.272" style="stroke:#a80036;stroke-width:1.2"/><line style="stroke:#a80036;stroke-width:1.2" x1="480.6" x2="894.6" y1="288.272" y2="288.272"/><text x="489" y="282.193" fill="#000" font-family="sans-serif" font-size="15.6" lengthAdjust="spacingAndGlyphs" textLength="176.4">disposition(&quot;accepted&quot;)</text></g></svg>