<svg xmlns="http://www.w3.org/2000/svg" xmlns:xlink="http://www.w3.org/1999/xlink" width="1089.6" height="339.6" contentScriptType="application/ecmascript" contentStyleType="text/css" style="width:1089px;height:339px" preserveAspectRatio="none" version="1.1" viewBox="0 0 1089 339" zoomAndPan="magnify"><defs><filter id="f19vdhjwihf8vo" width="300%" height="300%" x="-1" y="-1"><feGaussianBlur result="blurOut" stdDeviation="2.4"/><feColorMatrix in="blurOut" result="blurOut2" type="matrix" values="0 0 0 0 0 0 0 0 0 0 0 0 0 0 0 0 0 0 .4 0"/><feOffset dx="4.8" dy="4.8" in="blurOut2" result="blurOut3"/><feBlend in="SourceGraphic" in2="blurOut3" mode="normal"/></filter></defs><g><rect style="stroke:#a80036;stroke-width:1.2" width="12" height="139.838" x="598.2" y="83.316" fill="#FFF" filter="url(#f19vdhjwihf8vo)"/><rect style="stroke:#a80036;stroke-width:1.2" width="12" height="162.637" x="1019.4" y="118.275" fill="#FFF" filter="url(#f19vdhjwihf8vo)"/><line style="stroke:#a80036;stroke-width:1.2;stroke-dasharray:5,5" x1="175.2" x2="175.2" y1="45.956" y2="291.712"/><line style="stroke:#a80036;stroke-width:1.2;stroke-dasharray:5,5" x1="603.6" x2="603.6" y1="45.956" y2="291.712"/><line style="stroke:#a80036;stroke-width:1.2;stroke-dasharray:5,5" x1="1024.8" x2="1024.8" y1="45.956" y2="291.712"/><rect style="stroke:#a80036;stroke-width:1.7999999999999998" width="73.2" height="36.356" x="136.8" y="3.6" fill="#FEFECE" filter="url(#f19vdhjwihf8vo)"/><text x="145.2" y="27.594" fill="#000" font-family="sans-serif" font-size="16.8" lengthAdjust="spacingAndGlyphs" textLength="56.4">Device</text><rect style="stroke:#a80036;stroke-width:1.7999999999999998" width="73.2" height="36.356" x="136.8" y="290.512" fill="#FEFECE" filter="url(#f19vdhjwihf8vo)"/><text x="145.2" y="314.507" fill="#000" font-family="sans-serif" font-size="16.8" lengthAdjust="spacingAndGlyphs" textLength="56.4">Device</text><rect style="stroke:#a80036;stroke-width:1.7999999999999998" width="130.8" height="36.356" x="536.4" y="3.6" fill="#FEFECE" filter="url(#f19vdhjwihf8vo)"/><text x="544.8" y="27.594" fill="#000" font-family="sans-serif" font-size="16.8" lengthAdjust="spacingAndGlyphs" textLength="114">HTTP Adapter</text><rect style="stroke:#a80036;stroke-width:1.7999999999999998" width="130.8" height="36.356" x="536.4" y="290.512" fill="#FEFECE" filter="url(#f19vdhjwihf8vo)"/><text x="544.8" y="314.507" fill="#000" font-family="sans-serif" font-size="16.8" lengthAdjust="spacingAndGlyphs" textLength="114">HTTP Adapter</text><rect style="stroke:#a80036;stroke-width:1.7999999999999998" width="106.8" height="36.356" x="969.6" y="3.6" fill="#FEFECE" filter="url(#f19vdhjwihf8vo)"/><text x="978" y="27.594" fill="#000" font-family="sans-serif" font-size="16.8" lengthAdjust="spacingAndGlyphs" textLength="90">Application</text><rect style="stroke:#a80036;stroke-width:1.7999999999999998" width="106.8" height="36.356" x="969.6" y="290.512" fill="#FEFECE" filter="url(#f19vdhjwihf8vo)"/><text x="978" y="314.507" fill="#000" font-family="sans-serif" font-size="16.8" lengthAdjust="spacingAndGlyphs" textLength="90">Application</text><rect style="stroke:#a80036;stroke-width:1.2" width="12" height="139.838" x="598.2" y="83.316" fill="#FFF" filter="url(#f19vdhjwihf8vo)"/><rect style="stroke:#a80036;stroke-width:1.2" width="12" height="162.637" x="1019.4" y="118.275" fill="#FFF" filter="url(#f19vdhjwihf8vo)"/><polygon fill="#A80036" points="583.8 78.516 595.8 83.316 583.8 88.116 588.6 83.316" style="stroke:#a80036;stroke-width:1.2"/><line style="stroke:#a80036;stroke-width:1.2" x1="175.8" x2="591" y1="83.316" y2="83.316"/><text x="184.2" y="77.237" fill="#000" font-family="sans-serif" font-size="15.6" lengthAdjust="spacingAndGlyphs" textLength="380.4">1. HTTP request (&quot;POST&quot;, &quot;/event&quot;, &quot;hono-ttd=30&quot;)</text><polygon fill="#A80036" points="1005 113.475 1017 118.275 1005 123.075 1009.8 118.275" style="stroke:#a80036;stroke-width:1.2"/><line style="stroke:#a80036;stroke-width:1.2" x1="610.2" x2="1012.2" y1="118.275" y2="118.275"/><text x="618.6" y="112.196" fill="#000" font-family="sans-serif" font-size="15.6" lengthAdjust="spacingAndGlyphs" textLength="338.4">2. transfer(&quot;event/TENANT&quot;,&quot;4711&quot;,&quot;ttd=30&quot;)</text><polygon fill="#A80036" points="623.4 148.434 611.4 153.234 623.4 158.034 618.6 153.234" style="stroke:#a80036;stroke-width:1.2"/><line style="stroke:#a80036;stroke-width:1.2" x1="616.2" x2="1018.2" y1="153.234" y2="153.234"/><text x="630.6" y="147.155" fill="#000" font-family="sans-serif" font-size="15.6" lengthAdjust="spacingAndGlyphs" textLength="380.4">3. transfer(&quot;command/TENANT/4711&quot;,&quot;light&quot;,&quot;ON&quot;)</text><polygon fill="#A80036" points="189 183.394 177 188.194 189 192.994 184.2 188.194" style="stroke:#a80036;stroke-width:1.2"/><line style="stroke:#a80036;stroke-width:1.2" x1="181.8" x2="597" y1="188.194" y2="188.194"/><text x="196.2" y="182.115" fill="#000" font-family="sans-serif" font-size="15.6" lengthAdjust="spacingAndGlyphs" textLength="393.6">4. HTTP response ((&quot;200&quot;, &quot;hono-cmd=light&quot;), &quot;ON&quot;)</text><polygon fill="#A80036" points="1005 218.353 1017 223.153 1005 227.953 1009.8 223.153" style="stroke:#a80036;stroke-width:1.2"/><line style="stroke:#a80036;stroke-width:1.2" x1="604.2" x2="1012.2" y1="223.153" y2="223.153"/><text x="612.6" y="217.074" fill="#000" font-family="sans-serif" font-size="15.6" lengthAdjust="spacingAndGlyphs" textLength="176.4">disposition(&quot;accepted&quot;)</text><path fill="#FBFB77" d="M9.6,238.7531 L9.6,268.7531 L337.2,268.7531 L337.2,250.7531 L325.2,238.7531 L9.6,238.7531" filter="url(#f19vdhjwihf8vo)" style="stroke:#a80036;stroke-width:1.2"/><path fill="#FBFB77" d="M325.2,238.7531 L325.2,250.7531 L337.2,250.7531 L325.2,238.7531" style="stroke:#a80036;stroke-width:1.2"/><text x="16.8" y="259.233" fill="#000" font-family="sans-serif" font-size="15.6" lengthAdjust="spacingAndGlyphs" textLength="302.4">No response expected from the device.</text></g></svg>