<svg xmlns="http://www.w3.org/2000/svg" xmlns:xlink="http://www.w3.org/1999/xlink" width="1600.8" height="478.8" contentScriptType="application/ecmascript" contentStyleType="text/css" style="width:1600px;height:478px" preserveAspectRatio="none" version="1.1" viewBox="0 0 1600 478" zoomAndPan="magnify"><defs><filter id="fo1zb0wqg7eoa" width="300%" height="300%" x="-1" y="-1"><feGaussianBlur result="blurOut" stdDeviation="2.4"/><feColorMatrix in="blurOut" result="blurOut2" type="matrix" values="0 0 0 0 0 0 0 0 0 0 0 0 0 0 0 0 0 0 .4 0"/><feOffset dx="4.8" dy="4.8" in="blurOut2" result="blurOut3"/><feBlend in="SourceGraphic" in2="blurOut3" mode="normal"/></filter></defs><g><rect style="stroke:#a80036;stroke-width:1.2" width="12" height="139.838" x="822.6" y="83.316" fill="#FFF" filter="url(#fo1zb0wqg7eoa)"/><rect style="stroke:#a80036;stroke-width:1.2" width="12" height="104.878" x="822.6" y="305.072" fill="#FFF" filter="url(#fo1zb0wqg7eoa)"/><rect style="stroke:#a80036;stroke-width:1.2" width="12" height="256.716" x="1530.6" y="118.275" fill="#FFF" filter="url(#fo1zb0wqg7eoa)"/><line style="stroke:#a80036;stroke-width:1.2;stroke-dasharray:5,5" x1="169.2" x2="169.2" y1="45.956" y2="431.55"/><line style="stroke:#a80036;stroke-width:1.2;stroke-dasharray:5,5" x1="828" x2="828" y1="45.956" y2="431.55"/><line style="stroke:#a80036;stroke-width:1.2;stroke-dasharray:5,5" x1="1536" x2="1536" y1="45.956" y2="431.55"/><rect style="stroke:#a80036;stroke-width:1.7999999999999998" width="73.2" height="36.356" x="130.8" y="3.6" fill="#FEFECE" filter="url(#fo1zb0wqg7eoa)"/><text x="139.2" y="27.594" fill="#000" font-family="sans-serif" font-size="16.8" lengthAdjust="spacingAndGlyphs" textLength="56.4">Device</text><rect style="stroke:#a80036;stroke-width:1.7999999999999998" width="73.2" height="36.356" x="130.8" y="430.35" fill="#FEFECE" filter="url(#fo1zb0wqg7eoa)"/><text x="139.2" y="454.344" fill="#000" font-family="sans-serif" font-size="16.8" lengthAdjust="spacingAndGlyphs" textLength="56.4">Device</text><rect style="stroke:#a80036;stroke-width:1.7999999999999998" width="130.8" height="36.356" x="760.8" y="3.6" fill="#FEFECE" filter="url(#fo1zb0wqg7eoa)"/><text x="769.2" y="27.594" fill="#000" font-family="sans-serif" font-size="16.8" lengthAdjust="spacingAndGlyphs" textLength="114">HTTP Adapter</text><rect style="stroke:#a80036;stroke-width:1.7999999999999998" width="130.8" height="36.356" x="760.8" y="430.35" fill="#FEFECE" filter="url(#fo1zb0wqg7eoa)"/><text x="769.2" y="454.344" fill="#000" font-family="sans-serif" font-size="16.8" lengthAdjust="spacingAndGlyphs" textLength="114">HTTP Adapter</text><rect style="stroke:#a80036;stroke-width:1.7999999999999998" width="106.8" height="36.356" x="1480.8" y="3.6" fill="#FEFECE" filter="url(#fo1zb0wqg7eoa)"/><text x="1489.2" y="27.594" fill="#000" font-family="sans-serif" font-size="16.8" lengthAdjust="spacingAndGlyphs" textLength="90">Application</text><rect style="stroke:#a80036;stroke-width:1.7999999999999998" width="106.8" height="36.356" x="1480.8" y="430.35" fill="#FEFECE" filter="url(#fo1zb0wqg7eoa)"/><text x="1489.2" y="454.344" fill="#000" font-family="sans-serif" font-size="16.8" lengthAdjust="spacingAndGlyphs" textLength="90">Application</text><rect style="stroke:#a80036;stroke-width:1.2" width="12" height="139.838" x="822.6" y="83.316" fill="#FFF" filter="url(#fo1zb0wqg7eoa)"/><rect style="stroke:#a80036;stroke-width:1.2" width="12" height="104.878" x="822.6" y="305.072" fill="#FFF" filter="url(#fo1zb0wqg7eoa)"/><rect style="stroke:#a80036;stroke-width:1.2" width="12" height="256.716" x="1530.6" y="118.275" fill="#FFF" filter="url(#fo1zb0wqg7eoa)"/><polygon fill="#A80036" points="808.2 78.516 820.2 83.316 808.2 88.116 813 83.316" style="stroke:#a80036;stroke-width:1.2"/><line style="stroke:#a80036;stroke-width:1.2" x1="169.8" x2="815.4" y1="83.316" y2="83.316"/><text x="178.2" y="77.237" fill="#000" font-family="sans-serif" font-size="15.6" lengthAdjust="spacingAndGlyphs" textLength="380.4">1. HTTP request (&quot;POST&quot;, &quot;/event&quot;, &quot;hono-ttd=30&quot;)</text><polygon fill="#A80036" points="1516.2 113.475 1528.2 118.275 1516.2 123.075 1521 118.275" style="stroke:#a80036;stroke-width:1.2"/><line style="stroke:#a80036;stroke-width:1.2" x1="834.6" x2="1523.4" y1="118.275" y2="118.275"/><text x="843" y="112.196" fill="#000" font-family="sans-serif" font-size="15.6" lengthAdjust="spacingAndGlyphs" textLength="338.4">2. transfer(&quot;event/TENANT&quot;,&quot;4711&quot;,&quot;ttd=30&quot;)</text><polygon fill="#A80036" points="847.8 148.434 835.8 153.234 847.8 158.034 843 153.234" style="stroke:#a80036;stroke-width:1.2"/><line style="stroke:#a80036;stroke-width:1.2" x1="840.6" x2="1529.4" y1="153.234" y2="153.234"/><text x="855" y="147.155" fill="#000" font-family="sans-serif" font-size="15.6" lengthAdjust="spacingAndGlyphs" textLength="380.4">3. transfer(&quot;command/TENANT/4711&quot;,&quot;light&quot;,&quot;ON&quot;)</text><polygon fill="#A80036" points="183 183.394 171 188.194 183 192.994 178.2 188.194" style="stroke:#a80036;stroke-width:1.2"/><line style="stroke:#a80036;stroke-width:1.2" x1="175.8" x2="821.4" y1="188.194" y2="188.194"/><text x="190.2" y="182.115" fill="#000" font-family="sans-serif" font-size="15.6" lengthAdjust="spacingAndGlyphs" textLength="624">4. HTTP response ((&quot;200&quot;, &quot;hono-cmd=light&quot;, &quot;hono-cmd-req-id=${reqId}&quot;), &quot;ON&quot;)</text><polygon fill="#A80036" points="1516.2 218.353 1528.2 223.153 1516.2 227.953 1521 223.153" style="stroke:#a80036;stroke-width:1.2"/><line style="stroke:#a80036;stroke-width:1.2" x1="828.6" x2="1523.4" y1="223.153" y2="223.153"/><text x="837" y="217.074" fill="#000" font-family="sans-serif" font-size="15.6" lengthAdjust="spacingAndGlyphs" textLength="176.4">disposition(&quot;accepted&quot;)</text><path fill="#FBFB77" d="M9.6,238.7531 L9.6,268.7531 L325.2,268.7531 L325.2,250.7531 L313.2,238.7531 L9.6,238.7531" filter="url(#fo1zb0wqg7eoa)" style="stroke:#a80036;stroke-width:1.2"/><path fill="#FBFB77" d="M313.2,238.7531 L313.2,250.7531 L325.2,250.7531 L313.2,238.7531" style="stroke:#a80036;stroke-width:1.2"/><text x="16.8" y="259.233" fill="#000" font-family="sans-serif" font-size="15.6" lengthAdjust="spacingAndGlyphs" textLength="290.4">Command response in next operation</text><polygon fill="#A80036" points="808.2 300.272 820.2 305.072 808.2 309.872 813 305.072" style="stroke:#a80036;stroke-width:1.2"/><line style="stroke:#a80036;stroke-width:1.2" x1="169.8" x2="815.4" y1="305.072" y2="305.072"/><text x="178.2" y="298.993" fill="#000" font-family="sans-serif" font-size="15.6" lengthAdjust="spacingAndGlyphs" textLength="536.4">5. HTTP request(&quot;POST&quot;, &quot;/command/res/${reqId}/200&quot;, &quot;lumen=100&quot;)</text><polygon fill="#A80036" points="1516.2 335.231 1528.2 340.031 1516.2 344.831 1521 340.031" style="stroke:#a80036;stroke-width:1.2"/><line style="stroke:#a80036;stroke-width:1.2" x1="834.6" x2="1523.4" y1="340.031" y2="340.031"/><text x="843" y="333.952" fill="#000" font-family="sans-serif" font-size="15.6" lengthAdjust="spacingAndGlyphs" textLength="667.2">6. transfer(&quot;command_response/TENANT/4711/${replyId}&quot;,&quot;status=200&quot;,&quot;lumen=100&quot;)</text><polygon fill="#A80036" points="847.8 370.191 835.8 374.991 847.8 379.791 843 374.991" style="stroke:#a80036;stroke-width:1.2"/><line style="stroke:#a80036;stroke-width:1.2" x1="840.6" x2="1535.4" y1="374.991" y2="374.991"/><text x="855" y="368.911" fill="#000" font-family="sans-serif" font-size="15.6" lengthAdjust="spacingAndGlyphs" textLength="176.4">disposition(&quot;accepted&quot;)</text><polygon fill="#A80036" points="183 405.15 171 409.95 183 414.75 178.2 409.95" style="stroke:#a80036;stroke-width:1.2"/><line style="stroke:#a80036;stroke-width:1.2" x1="175.8" x2="827.4" y1="409.95" y2="409.95"/><text x="190.2" y="403.871" fill="#000" font-family="sans-serif" font-size="15.6" lengthAdjust="spacingAndGlyphs" textLength="190.8">7. HTTP response (&quot;202&quot;)</text></g></svg>